<svg width="17" height="17" viewBox="0 0 17 17" fill="none" xmlns="http://www.w3.org/2000/svg">
<path d="M1.66406 8.50002C1.66406 5.98602 1.66406 4.72869 2.4454 3.94802C3.22673 3.16735 4.4834 3.16669 6.9974 3.16669H9.66406C12.1781 3.16669 13.4354 3.16669 14.2161 3.94802C14.9967 4.72935 14.9974 5.98602 14.9974 8.50002V9.83335C14.9974 12.3474 14.9974 13.6047 14.2161 14.3854C13.4347 15.166 12.1781 15.1667 9.66406 15.1667H6.9974C4.4834 15.1667 3.22606 15.1667 2.4454 14.3854C1.66473 13.604 1.66406 12.3474 1.66406 9.83335V8.50002Z" stroke="#85754F" stroke-width="1.2"/>
<path d="M4.99609 3.16669V2.16669M11.6628 3.16669V2.16669M1.99609 6.50002H14.6628" stroke="#85754F" stroke-width="1.2" stroke-linecap="round"/>
<path d="M12.332 11.8333C12.332 12.0101 12.2618 12.1797 12.1368 12.3047C12.0117 12.4298 11.8422 12.5 11.6654 12.5C11.4886 12.5 11.319 12.4298 11.194 12.3047C11.0689 12.1797 10.9987 12.0101 10.9987 11.8333C10.9987 11.6565 11.0689 11.487 11.194 11.3619C11.319 11.2369 11.4886 11.1667 11.6654 11.1667C11.8422 11.1667 12.0117 11.2369 12.1368 11.3619C12.2618 11.487 12.332 11.6565 12.332 11.8333ZM12.332 9.16667C12.332 9.34348 12.2618 9.51305 12.1368 9.63807C12.0117 9.7631 11.8422 9.83333 11.6654 9.83333C11.4886 9.83333 11.319 9.7631 11.194 9.63807C11.0689 9.51305 10.9987 9.34348 10.9987 9.16667C10.9987 8.98986 11.0689 8.82029 11.194 8.69526C11.319 8.57024 11.4886 8.5 11.6654 8.5C11.8422 8.5 12.0117 8.57024 12.1368 8.69526C12.2618 8.82029 12.332 8.98986 12.332 9.16667ZM8.9987 11.8333C8.9987 12.0101 8.92846 12.1797 8.80344 12.3047C8.67841 12.4298 8.50884 12.5 8.33203 12.5C8.15522 12.5 7.98565 12.4298 7.86063 12.3047C7.7356 12.1797 7.66536 12.0101 7.66536 11.8333C7.66536 11.6565 7.7356 11.487 7.86063 11.3619C7.98565 11.2369 8.15522 11.1667 8.33203 11.1667C8.50884 11.1667 8.67841 11.2369 8.80344 11.3619C8.92846 11.487 8.9987 11.6565 8.9987 11.8333ZM8.9987 9.16667C8.9987 9.34348 8.92846 9.51305 8.80344 9.63807C8.67841 9.7631 8.50884 9.83333 8.33203 9.83333C8.15522 9.83333 7.98565 9.7631 7.86063 9.63807C7.7356 9.51305 7.66536 9.34348 7.66536 9.16667C7.66536 8.98986 7.7356 8.82029 7.86063 8.69526C7.98565 8.57024 8.15522 8.5 8.33203 8.5C8.50884 8.5 8.67841 8.57024 8.80344 8.69526C8.92846 8.82029 8.9987 8.98986 8.9987 9.16667ZM5.66536 11.8333C5.66536 12.0101 5.59513 12.1797 5.4701 12.3047C5.34508 12.4298 5.17551 12.5 4.9987 12.5C4.82189 12.5 4.65232 12.4298 4.52729 12.3047C4.40227 12.1797 4.33203 12.0101 4.33203 11.8333C4.33203 11.6565 4.40227 11.487 4.52729 11.3619C4.65232 11.2369 4.82189 11.1667 4.9987 11.1667C5.17551 11.1667 5.34508 11.2369 5.4701 11.3619C5.59513 11.487 5.66536 11.6565 5.66536 11.8333ZM5.66536 9.16667C5.66536 9.34348 5.59513 9.51305 5.4701 9.63807C5.34508 9.7631 5.17551 9.83333 4.9987 9.83333C4.82189 9.83333 4.65232 9.7631 4.52729 9.63807C4.40227 9.51305 4.33203 9.34348 4.33203 9.16667C4.33203 8.98986 4.40227 8.82029 4.52729 8.69526C4.65232 8.57024 4.82189 8.5 4.9987 8.5C5.17551 8.5 5.34508 8.57024 5.4701 8.69526C5.59513 8.82029 5.66536 8.98986 5.66536 9.16667Z" fill="#85754F"/>
</svg>
