<svg width="30" height="30" viewBox="0 0 30 30" fill="none" xmlns="http://www.w3.org/2000/svg">
<path fill-rule="evenodd" clip-rule="evenodd" d="M25.6872 7.85622C26.2684 8.36997 26.3228 9.25872 25.8091 9.84372L15.0278 22.0312C14.9033 22.172 14.7518 22.2864 14.5824 22.3676C14.4129 22.4489 14.2289 22.4954 14.0411 22.5043C13.8534 22.5132 13.6658 22.4844 13.4894 22.4195C13.313 22.3547 13.1513 22.2552 13.0141 22.1268L5.98281 15.5643C5.71231 15.3094 5.55374 14.9578 5.54175 14.5863C5.52976 14.2148 5.66532 13.8537 5.91881 13.5819C6.17231 13.31 6.5231 13.1496 6.89452 13.1357C7.26594 13.1217 7.62778 13.2554 7.90093 13.5075L13.8822 19.0762L23.7072 7.97622C23.8297 7.83765 23.9783 7.7246 24.1446 7.64355C24.3108 7.5625 24.4914 7.51505 24.676 7.5039C24.8607 7.49275 25.0457 7.51813 25.2205 7.57859C25.3953 7.63905 25.5564 7.73339 25.6947 7.85622H25.6872Z" fill="#FDC41F"/>
</svg>
