<svg width="155" height="22" viewBox="0 0 155 22" fill="none" xmlns="http://www.w3.org/2000/svg">
<path d="M149.675 18.6763C148.948 18.6763 148.241 18.6345 147.553 18.5509C146.865 18.4673 146.234 18.3451 145.662 18.1843V15.9173C146.266 16.0845 146.91 16.2131 147.591 16.3032C148.279 16.3868 148.964 16.4286 149.646 16.4286C150.437 16.4286 151 16.345 151.334 16.1778C151.669 16.0041 151.836 15.7469 151.836 15.406C151.836 15.1552 151.759 14.9655 151.604 14.8369C151.456 14.7018 151.177 14.6053 150.765 14.5475L148.691 14.2581C147.527 14.0908 146.691 13.7564 146.183 13.2548C145.675 12.7467 145.421 12.0586 145.421 11.1904C145.421 10.1164 145.887 9.27708 146.82 8.67255C147.752 8.06159 149.17 7.7561 151.074 7.7561C151.659 7.7561 152.247 7.79469 152.839 7.87187C153.437 7.94261 153.958 8.03908 154.402 8.16127V10.4283C153.932 10.2996 153.405 10.1967 152.82 10.1196C152.241 10.0424 151.669 10.0038 151.103 10.0038C150.144 10.0038 149.482 10.0971 149.115 10.2836C148.755 10.4636 148.575 10.7177 148.575 11.0457C148.575 11.2708 148.652 11.454 148.807 11.5955C148.961 11.7306 149.238 11.8303 149.636 11.8946L151.71 12.184C152.823 12.3383 153.649 12.6503 154.19 13.1197C154.73 13.5892 155 14.2999 155 15.2517C155 15.9591 154.797 16.5701 154.392 17.0846C153.987 17.5991 153.386 17.9946 152.588 18.2711C151.791 18.5412 150.82 18.6763 149.675 18.6763Z" fill="#E80004"/>
<path d="M137.104 18.6762C136.274 18.6762 135.451 18.6248 134.635 18.5219C133.818 18.419 133.056 18.2614 132.348 18.0492V2.8844H135.686V8.92331H135.84C136.67 8.14513 137.757 7.75604 139.101 7.75604C139.982 7.75604 140.776 7.94576 141.484 8.3252C142.198 8.70464 142.76 9.28345 143.172 10.0616C143.59 10.8398 143.799 11.7981 143.799 12.9364C143.799 14.8079 143.233 16.2324 142.101 17.2099C140.976 18.1875 139.31 18.6762 137.104 18.6762ZM137.413 16.1777C138.448 16.1777 139.22 15.9333 139.728 15.4446C140.236 14.9493 140.49 14.1937 140.49 13.1776C140.49 11.3318 139.638 10.4089 137.934 10.4089C137.509 10.4089 137.104 10.47 136.718 10.5922C136.332 10.708 135.988 10.8913 135.686 11.1421V15.9751C136.213 16.1102 136.789 16.1777 137.413 16.1777Z" fill="#E80004"/>
<path d="M124.26 7.7561C125.566 7.7561 126.614 7.90402 127.405 8.19986C128.202 8.49569 128.791 8.98446 129.17 9.66617C129.556 10.3479 129.749 11.2804 129.749 12.4637V18.4737H126.98L126.759 17.4801H126.595C126.222 17.866 125.755 18.1618 125.196 18.3676C124.643 18.567 124.041 18.6667 123.392 18.6667C122.556 18.6667 121.845 18.538 121.26 18.2808C120.675 18.0171 120.234 17.6537 119.938 17.1907C119.642 16.7276 119.494 16.1939 119.494 15.5893C119.494 14.5925 119.887 13.8207 120.671 13.2741C121.456 12.7274 122.688 12.3994 124.366 12.2901L126.479 12.1261C126.466 11.6245 126.366 11.2322 126.18 10.9492C125.993 10.6662 125.701 10.4636 125.302 10.3414C124.91 10.2193 124.373 10.1582 123.691 10.1582C123.209 10.1582 122.675 10.2 122.089 10.2836C121.504 10.3607 120.954 10.4765 120.44 10.6309V8.25774C121.012 8.09053 121.636 7.96512 122.311 7.88151C122.993 7.79791 123.643 7.7561 124.26 7.7561ZM124.424 16.4865C124.791 16.4865 125.151 16.4318 125.504 16.3225C125.865 16.2067 126.189 16.0363 126.479 15.8112V13.9108L124.665 14.0555C123.996 14.1134 123.517 14.2452 123.228 14.451C122.945 14.6568 122.803 14.9462 122.803 15.3192C122.803 15.6858 122.938 15.972 123.209 16.1778C123.479 16.3836 123.884 16.4865 124.424 16.4865Z" fill="#E80004"/>
<path d="M107.406 18.4737V4.19641H110.821V15.7919H118.326V18.4737H107.406Z" fill="#E80004"/>
<path d="M99.1632 7.7561C100.469 7.7561 101.517 7.90402 102.308 8.19986C103.106 8.49569 103.694 8.98446 104.073 9.66617C104.459 10.3479 104.652 11.2804 104.652 12.4637V18.4737H101.884L101.662 17.4801H101.498C101.125 17.866 100.658 18.1618 100.099 18.3676C99.5459 18.567 98.9446 18.6667 98.295 18.6667C97.459 18.6667 96.7483 18.538 96.1631 18.2808C95.5778 18.0171 95.1373 17.6537 94.8414 17.1907C94.5456 16.7276 94.3977 16.1939 94.3977 15.5893C94.3977 14.5925 94.79 13.8207 95.5746 13.2741C96.3592 12.7274 97.5908 12.3994 99.2693 12.2901L101.382 12.1261C101.369 11.6245 101.269 11.2322 101.083 10.9492C100.896 10.6662 100.604 10.4636 100.205 10.3414C99.8128 10.2193 99.2758 10.1582 98.5941 10.1582C98.1117 10.1582 97.5779 10.2 96.9927 10.2836C96.4075 10.3607 95.8576 10.4765 95.3431 10.6309V8.25774C95.9155 8.09053 96.5393 7.96512 97.2146 7.88151C97.8963 7.79791 98.5458 7.7561 99.1632 7.7561ZM99.3272 16.4865C99.6938 16.4865 100.054 16.4318 100.408 16.3225C100.768 16.2067 101.093 16.0363 101.382 15.8112V13.9108L99.5684 14.0555C98.8995 14.1134 98.4204 14.2452 98.131 14.451C97.848 14.6568 97.7066 14.9462 97.7066 15.3192C97.7066 15.6858 97.8416 15.972 98.1117 16.1778C98.3818 16.3836 98.787 16.4865 99.3272 16.4865Z" fill="#2D0C0C"/>
<path d="M86.6766 7.91997H89.397L89.6575 9.1837H89.8118C90.1527 8.72709 90.5932 8.3798 91.1335 8.14185C91.6737 7.89746 92.2718 7.77527 92.9278 7.77527C93.2943 7.77527 93.6288 7.80421 93.931 7.86209V10.8044C93.6159 10.7401 93.2172 10.7079 92.7348 10.7079C92.2268 10.7079 91.7187 10.7947 91.2106 10.9684C90.709 11.1356 90.3103 11.38 90.0144 11.7015V18.4736H86.6766V7.91997Z" fill="#2D0C0C"/>
<path d="M80.6285 18.4737V7.92006H83.9663V18.4737H80.6285ZM82.2974 6.39587C80.9404 6.39587 80.262 5.85886 80.262 4.78485C80.262 4.25749 80.4292 3.85554 80.7636 3.579C81.1044 3.30246 81.6157 3.16418 82.2974 3.16418C82.9791 3.16418 83.4872 3.30246 83.8216 3.579C84.1625 3.85554 84.3329 4.25749 84.3329 4.78485C84.3329 5.85886 83.6544 6.39587 82.2974 6.39587Z" fill="#2D0C0C"/>
<path d="M67.1569 2.8844H70.4947V8.93295H70.649C71.0799 8.54708 71.5816 8.25446 72.1539 8.05509C72.7263 7.85572 73.3309 7.75604 73.9675 7.75604C75.2088 7.75604 76.196 8.12905 76.9291 8.87507C77.6687 9.62109 78.0385 10.7691 78.0385 12.319V18.4737H74.7007V12.5023C74.7007 11.7948 74.5464 11.2932 74.2377 10.9974C73.9354 10.6951 73.482 10.544 72.8775 10.544C72.4273 10.544 71.9899 10.6244 71.5655 10.7851C71.1475 10.9459 70.7905 11.1774 70.4947 11.4797V18.4737H67.1569V2.8844Z" fill="#2D0C0C"/>
<path d="M59.839 18.6763C59.1123 18.6763 58.4049 18.6345 57.7167 18.5509C57.0286 18.4673 56.3983 18.3451 55.8259 18.1843V15.9173C56.4305 16.0845 57.0736 16.2131 57.7553 16.3032C58.4435 16.3868 59.1284 16.4286 59.8101 16.4286C60.6011 16.4286 61.1639 16.345 61.4983 16.1778C61.8327 16.0041 61.9999 15.7469 61.9999 15.406C61.9999 15.1552 61.9227 14.9655 61.7684 14.8369C61.6205 14.7018 61.3407 14.6053 60.9291 14.5475L58.855 14.2581C57.691 14.0908 56.8549 13.7564 56.3469 13.2548C55.8388 12.7467 55.5848 12.0586 55.5848 11.1904C55.5848 10.1164 56.051 9.27708 56.9836 8.67255C57.9161 8.06159 59.3342 7.7561 61.2378 7.7561C61.8231 7.7561 62.4115 7.79469 63.0032 7.87187C63.6013 7.94261 64.1222 8.03908 64.566 8.16127V10.4283C64.0965 10.2996 63.5691 10.1967 62.9839 10.1196C62.4051 10.0424 61.8327 10.0038 61.2668 10.0038C60.3085 10.0038 59.6461 10.0971 59.2795 10.2836C58.9194 10.4636 58.7393 10.7177 58.7393 11.0457C58.7393 11.2708 58.8165 11.454 58.9708 11.5955C59.1252 11.7306 59.4017 11.8303 59.8004 11.8946L61.8745 12.184C62.9871 12.3383 63.8135 12.6503 64.3537 13.1197C64.894 13.5892 65.1641 14.2999 65.1641 15.2517C65.1641 15.9591 64.9615 16.5701 64.5563 17.0846C64.1511 17.5991 63.5498 17.9946 62.7524 18.2711C61.9549 18.5412 60.9838 18.6763 59.839 18.6763Z" fill="#2D0C0C"/>
<path d="M48.0464 7.7561C49.3519 7.7561 50.4002 7.90402 51.1913 8.19986C51.9887 8.49569 52.5772 8.98446 52.9566 9.66617C53.3425 10.3479 53.5354 11.2804 53.5354 12.4637V18.4737H50.7668L50.5449 17.4801H50.3809C50.0079 17.866 49.5417 18.1618 48.9822 18.3676C48.4291 18.567 47.8277 18.6667 47.1782 18.6667C46.3421 18.6667 45.6315 18.538 45.0463 18.2808C44.461 18.0171 44.0205 17.6537 43.7246 17.1907C43.4288 16.7276 43.2809 16.1939 43.2809 15.5893C43.2809 14.5925 43.6732 13.8207 44.4578 13.2741C45.2424 12.7274 46.474 12.3994 48.1525 12.2901L50.2652 12.1261C50.2523 11.6245 50.1526 11.2322 49.9661 10.9492C49.7796 10.6662 49.487 10.4636 49.0883 10.3414C48.696 10.2193 48.159 10.1582 47.4772 10.1582C46.9949 10.1582 46.4611 10.2 45.8759 10.2836C45.2906 10.3607 44.7408 10.4765 44.2263 10.6309V8.25774C44.7987 8.09053 45.4225 7.96512 46.0978 7.88151C46.7795 7.79791 47.429 7.7561 48.0464 7.7561ZM48.2104 16.4865C48.577 16.4865 48.9371 16.4318 49.2909 16.3225C49.651 16.2067 49.9758 16.0363 50.2652 15.8112V13.9108L48.4516 14.0555C47.7827 14.1134 47.3036 14.2452 47.0142 14.451C46.7312 14.6568 46.5897 14.9462 46.5897 15.3192C46.5897 15.6858 46.7248 15.972 46.9949 16.1778C47.265 16.3836 47.6702 16.4865 48.2104 16.4865Z" fill="#2D0C0C"/>
<path d="M27.3297 18.4737V4.19641H30.7447V9.71439H37.5843V4.19641H40.9992V18.4737H37.5843V12.6277H30.7447V18.4737H27.3297Z" fill="#2D0C0C"/>
<path fill-rule="evenodd" clip-rule="evenodd" d="M13.4202 1.70943C11.8075 0.0966936 9.19274 0.0966934 7.58 1.70943L1.20955 8.07988C-0.403184 9.69261 -0.403185 12.3074 1.20955 13.9201L7.58 20.2906C9.19274 21.9033 11.8075 21.9033 13.4202 20.2906L19.7907 13.9201C21.4034 12.3074 21.4034 9.69261 19.7907 8.07988L13.4202 1.70943ZM6.80656 12.8669C6.61156 12.6719 6.50202 12.4074 6.50202 12.1316V8.69619L4.95888 10.2393C3.94375 11.2545 3.94375 12.9003 4.95888 13.9155L8.64972 17.6063C9.66485 18.6214 11.3107 18.6214 12.3258 17.6063L16.0167 13.9155C17.0318 12.9003 17.0318 11.2545 16.0167 10.2393L14.4401 8.66278V12.169C14.4401 12.4447 14.3306 12.7092 14.1356 12.9042L11.7122 15.3276C11.0371 16.0027 9.94244 16.0027 9.26729 15.3276L6.80656 12.8669ZM12.2122 4.62308L12.2122 13.5648L12.7334 13.0536C13.2755 12.5219 13.581 11.7944 13.581 11.0351L13.581 5.8485L12.2122 4.62308ZM7.3758 5.89898L7.37581 11.0351C7.37581 11.7944 7.68126 12.5219 8.22338 13.0536L8.74459 13.5648V6.6374L8.74459 6.63586L8.74459 4.67357L7.3758 5.89898ZM9.79311 3.85785C9.79311 3.75472 9.83702 3.65646 9.91387 3.58766C10.2264 3.30785 10.6994 3.30785 11.012 3.58766C11.1074 3.67308 11.1619 3.79508 11.1619 3.92314L11.1619 14.5685C11.1619 14.6203 11.1356 14.6657 11.0866 14.7147C10.7498 15.0515 10.1804 15.0515 9.84363 14.7147C9.81128 14.6824 9.79311 14.6142 9.79311 14.5685L9.79311 3.85785Z" fill="url(#paint0_linear_285_5287)"/>
<defs>
<linearGradient id="paint0_linear_285_5287" x1="11.6118" y1="21.0077" x2="11.8375" y2="5.2027" gradientUnits="userSpaceOnUse">
<stop stop-color="#E80004"/>
<stop offset="1" stop-color="#FF572D"/>
</linearGradient>
</defs>
</svg>
