<svg width="16" height="17" viewBox="0 0 16 17" fill="none" xmlns="http://www.w3.org/2000/svg">
<path d="M13.931 12.5053L12.4057 10.9667L12.8643 10.508L14.403 12.0333L13.931 12.5053ZM11.8003 4.74867L11.3417 4.29L12.867 2.764L13.339 3.22333L11.8003 4.74867ZM4.20032 4.762L2.67432 3.22267L3.13366 2.76333L4.67232 4.28933L4.20032 4.762ZM2.05699 12.5047L1.59766 12.0327L3.12366 10.5067L3.59499 10.966L2.05699 12.5047ZM4.29366 13.8333L5.27366 9.65L2.00032 6.82067L6.31366 6.45533L8.00032 2.5L9.70032 6.45533L14.0137 6.82067L10.739 9.65L11.719 13.8333L8.00032 11.6067L4.29366 13.8333Z" fill="#FDC41F"/>
</svg>
