<svg width="16" height="16" viewBox="0 0 16 16" fill="none" xmlns="http://www.w3.org/2000/svg">
<g clip-path="url(#clip0_4398_276)">
<path fill-rule="evenodd" clip-rule="evenodd" d="M6.97266 1.09282L5.86774 2.19676C5.77782 2.28496 5.65733 2.33504 5.53138 2.33658H3.79285C2.9891 2.33658 2.33788 2.9878 2.33788 3.79155V5.53008C2.33659 5.65637 2.28649 5.77726 2.19806 5.86742L1.09314 6.97136C0.820863 7.24446 0.667969 7.61437 0.667969 8.00001C0.667969 8.38565 0.820863 8.75556 1.09314 9.02865L2.19806 10.1336C2.28625 10.2235 2.33634 10.344 2.33788 10.4699V12.2085C2.33788 13.0122 2.9891 13.6634 3.79285 13.6634H5.53138C5.65766 13.6647 5.77855 13.7148 5.86872 13.8033L6.97266 14.9082C7.24576 15.1804 7.61566 15.3333 8.0013 15.3333C8.38694 15.3333 8.75685 15.1804 9.02995 14.9082L10.1349 13.8033C10.2248 13.7151 10.3453 13.665 10.4712 13.6634H12.2098C13.0135 13.6634 13.6647 13.0122 13.6647 12.2085V10.4699C13.666 10.3436 13.7161 10.2228 13.8046 10.1326L14.9095 9.02865C15.1817 8.75556 15.3346 8.38565 15.3346 8.00001C15.3346 7.61437 15.1817 7.24446 14.9095 6.97136L13.8046 5.86645C13.7164 5.77652 13.6663 5.65603 13.6647 5.53008V3.79155C13.6647 2.9878 13.0135 2.33658 12.2098 2.33658H10.4712C10.3449 2.3353 10.2241 2.28519 10.1339 2.19676L9.02995 1.09184C8.75685 0.819566 8.38694 0.666672 8.0013 0.666672C7.61566 0.666672 7.24576 0.820544 6.97266 1.09282ZM5.5568 10.4435C5.36563 10.2524 5.36563 9.94242 5.5568 9.75125L9.75352 5.55453C9.94469 5.36336 10.2546 5.36336 10.4458 5.55453C10.637 5.7457 10.637 6.05564 10.4458 6.24681L6.24908 10.4435C6.05792 10.6347 5.74797 10.6347 5.5568 10.4435ZM6.0457 5.5555C5.77569 5.5555 5.5568 5.77439 5.5568 6.0444C5.5568 6.31442 5.77569 6.53331 6.0457 6.53331C6.31571 6.53331 6.5346 6.31442 6.5346 6.0444C6.5346 5.77439 6.31571 5.5555 6.0457 5.5555ZM9.46801 9.95561C9.46801 10.2256 9.68689 10.4445 9.95691 10.4445C10.2269 10.4445 10.4458 10.2256 10.4458 9.95561C10.4458 9.6856 10.2269 9.46671 9.95691 9.46671C9.68689 9.46671 9.46801 9.6856 9.46801 9.95561Z" fill="#08AE66"/>
</g>
<defs>
<clipPath id="clip0_4398_276">
<rect width="16" height="16" fill="white"/>
</clipPath>
</defs>
</svg>
