<svg width="16" height="16" viewBox="0 0 16 16" fill="none" xmlns="http://www.w3.org/2000/svg">
<path d="M8.00016 1.33325C11.6822 1.33325 14.6668 4.31859 14.6668 7.99992C14.6668 11.6813 11.6822 14.6666 8.00016 14.6666C4.31816 14.6666 1.3335 11.6813 1.3335 7.99992C1.3335 4.31859 4.31816 1.33325 8.00016 1.33325ZM8.00016 2.44459C4.93683 2.44459 2.44483 4.93659 2.44483 7.99992C2.44483 11.0633 4.93683 13.5553 8.00016 13.5553C11.0635 13.5553 13.5555 11.0633 13.5555 7.99992C13.5555 4.93659 11.0635 2.44459 8.00016 2.44459Z" fill="#06B569"/>
<path fill-rule="evenodd" clip-rule="evenodd" d="M11.1867 5.49755C11.2805 5.60266 11.3332 5.74521 11.3332 5.89384C11.3332 6.04247 11.2805 6.18502 11.1867 6.29013L7.43699 10.4914C7.38744 10.547 7.3286 10.591 7.26385 10.6211C7.1991 10.6511 7.1297 10.6666 7.05962 10.6666C6.98953 10.6666 6.92013 10.6511 6.85538 10.6211C6.79063 10.591 6.7318 10.547 6.68225 10.4914L4.81923 8.40441C4.77145 8.35271 4.73334 8.29086 4.70712 8.22247C4.6809 8.15408 4.6671 8.08053 4.66652 8.00611C4.66595 7.93168 4.6786 7.85787 4.70376 7.78899C4.72891 7.7201 4.76606 7.65752 4.81303 7.60489C4.86 7.55226 4.91586 7.51064 4.97734 7.48246C5.03882 7.45427 5.1047 7.44009 5.17112 7.44074C5.23755 7.44138 5.30319 7.45685 5.36423 7.48622C5.42527 7.5156 5.48047 7.5583 5.52662 7.61184L7.05945 9.32927L10.479 5.49755C10.5254 5.44546 10.5806 5.40414 10.6413 5.37595C10.702 5.34776 10.7671 5.33325 10.8328 5.33325C10.8986 5.33325 10.9636 5.34776 11.0244 5.37595C11.0851 5.40414 11.1402 5.44546 11.1867 5.49755Z" fill="#06B569"/>
</svg>
