<svg width="25" height="26" viewBox="0 0 25 26" fill="none" xmlns="http://www.w3.org/2000/svg">
<rect y="0.0908203" width="25" height="25" rx="12.5" fill="white"/>
<g clip-path="url(#clip0_2061_1934)">
<path d="M12.4921 9.21582C10.6653 9.21582 8.79151 10.2731 7.31635 12.3876C7.27424 12.4486 7.25117 12.5208 7.25004 12.5949C7.24892 12.669 7.26979 12.7418 7.31002 12.8041C8.44346 14.5783 10.2922 15.9658 12.4921 15.9658C14.668 15.9658 16.5547 14.5741 17.6903 12.7959C17.7296 12.7348 17.7504 12.6638 17.7504 12.5912C17.7504 12.5186 17.7296 12.4475 17.6903 12.3864C16.5521 10.6286 14.6516 9.21582 12.4921 9.21582Z" stroke="#302F34" stroke-linecap="round" stroke-linejoin="round"/>
<path d="M12.5 14.4658C13.5355 14.4658 14.375 13.6264 14.375 12.5908C14.375 11.5553 13.5355 10.7158 12.5 10.7158C11.4645 10.7158 10.625 11.5553 10.625 12.5908C10.625 13.6264 11.4645 14.4658 12.5 14.4658Z" stroke="#302F34" stroke-miterlimit="10"/>
</g>
<defs>
<clipPath id="clip0_2061_1934">
<rect width="12" height="12" fill="white" transform="translate(6.5 6.59082)"/>
</clipPath>
</defs>
</svg>
