<svg width="392" height="144" viewBox="0 0 392 144" fill="none" xmlns="http://www.w3.org/2000/svg">
<path d="M10 112.376C4.47716 112.376 0 107.899 0 102.376V94.024C0 91.8636 0.699588 89.7614 1.99407 88.0319L63.0959 6.39466C64.984 3.87194 67.9508 2.38673 71.1018 2.38673H90.2839C94.3783 2.38673 96.737 7.03866 94.3174 10.3416L35.4513 90.6961L19.6284 86.1215H119.988C125.511 86.1215 129.988 90.5987 129.988 96.1215V102.376C129.988 107.899 125.511 112.376 119.988 112.376H10ZM85.5092 141.613C79.9864 141.613 75.5093 137.136 75.5093 131.613V112.376L76.5107 86.1215V70.0663C76.5107 64.5435 80.9879 60.0663 86.5107 60.0663H97.1551C102.678 60.0663 107.155 64.5434 107.155 70.0663V131.613C107.155 137.136 102.678 141.613 97.1551 141.613H85.5092Z" fill="#FDC41F"/>
<path d="M193.771 144C182.288 144 172.006 141.215 162.926 135.646C153.847 129.945 146.703 121.724 141.495 110.983C136.288 100.243 133.684 87.2486 133.684 72C133.684 56.7514 136.288 43.7569 141.495 33.0166C146.703 22.2762 153.847 14.1215 162.926 8.55248C172.006 2.85083 182.288 0 193.771 0C205.388 0 215.669 2.85083 224.616 8.55248C233.695 14.1215 240.839 22.2762 246.047 33.0166C251.254 43.7569 253.858 56.7514 253.858 72C253.858 87.2486 251.254 100.243 246.047 110.983C240.839 121.724 233.695 129.945 224.616 135.646C215.669 141.215 205.388 144 193.771 144ZM193.771 116.751C199.246 116.751 203.986 115.227 207.992 112.177C212.131 109.127 215.336 104.287 217.605 97.6575C220.009 91.0276 221.211 82.4751 221.211 72C221.211 61.5249 220.009 52.9724 217.605 46.3425C215.336 39.7127 212.131 34.8729 207.992 31.8232C203.986 28.7735 199.246 27.2486 193.771 27.2486C188.43 27.2486 183.69 28.7735 179.55 31.8232C175.545 34.8729 172.34 39.7127 169.937 46.3425C167.667 52.9724 166.532 61.5249 166.532 72C166.532 82.4751 167.667 91.0276 169.937 97.6575C172.34 104.287 175.545 109.127 179.55 112.177C183.69 115.227 188.43 116.751 193.771 116.751Z" fill="#FDC41F"/>
<path d="M272.012 112.376C266.489 112.376 262.012 107.899 262.012 102.376V94.024C262.012 91.8636 262.712 89.7614 264.006 88.0319L325.108 6.39466C326.996 3.87194 329.963 2.38673 333.114 2.38673H352.296C356.39 2.38673 358.749 7.03866 356.329 10.3416L297.463 90.6961L281.64 86.1215H382C387.523 86.1215 392 90.5987 392 96.1215V102.376C392 107.899 387.523 112.376 382 112.376H272.012ZM347.521 141.613C341.998 141.613 337.521 137.136 337.521 131.613V112.376L338.523 86.1215V70.0663C338.523 64.5435 343 60.0663 348.523 60.0663H359.167C364.69 60.0663 369.167 64.5434 369.167 70.0663V131.613C369.167 137.136 364.69 141.613 359.167 141.613H347.521Z" fill="#FDC41F"/>
</svg>
