<svg width="31" height="30" viewBox="0 0 31 30" fill="none" xmlns="http://www.w3.org/2000/svg">
<path d="M19.0793 28.4375H11.5793C4.79185 28.4375 1.89185 25.5375 1.89185 18.75V11.25C1.89185 4.4625 4.79185 1.5625 11.5793 1.5625H19.0793C25.8668 1.5625 28.7668 4.4625 28.7668 11.25V18.75C28.7668 25.5375 25.8668 28.4375 19.0793 28.4375ZM11.5793 3.4375C5.81685 3.4375 3.76685 5.4875 3.76685 11.25V18.75C3.76685 24.5125 5.81685 26.5625 11.5793 26.5625H19.0793C24.8418 26.5625 26.8918 24.5125 26.8918 18.75V11.25C26.8918 5.4875 24.8418 3.4375 19.0793 3.4375H11.5793Z" fill="#302F34"/>
<path d="M15.3391 20.3149C12.4141 20.3149 10.0266 17.9274 10.0266 15.0024C10.0266 12.0774 12.4141 9.68994 15.3391 9.68994C18.2641 9.68994 20.6516 12.0774 20.6516 15.0024C20.6516 17.9274 18.2641 20.3149 15.3391 20.3149ZM15.3391 11.5649C13.4391 11.5649 11.9016 13.1024 11.9016 15.0024C11.9016 16.9024 13.4391 18.4399 15.3391 18.4399C17.2391 18.4399 18.7766 16.9024 18.7766 15.0024C18.7766 13.1024 17.2391 11.5649 15.3391 11.5649Z" fill="#302F34"/>
<path d="M21.5872 9.37854C21.4247 9.37854 21.2622 9.34104 21.1122 9.27854C20.9622 9.21604 20.8247 9.12854 20.6997 9.01604C20.5872 8.89104 20.4872 8.75354 20.4247 8.60354C20.3622 8.45354 20.3372 8.29104 20.3372 8.12854C20.3372 7.96604 20.3622 7.80354 20.4247 7.65354C20.4997 7.49104 20.5872 7.36604 20.6997 7.24104C20.7622 7.19104 20.8247 7.12854 20.8872 7.09104C20.9622 7.04104 21.0372 7.00354 21.1122 6.97854C21.1872 6.94104 21.2622 6.91604 21.3497 6.90354C21.7497 6.81604 22.1747 6.95354 22.4747 7.24104C22.5872 7.36604 22.6747 7.49104 22.7372 7.65354C22.7997 7.80354 22.8372 7.96604 22.8372 8.12854C22.8372 8.29104 22.7997 8.45354 22.7372 8.60354C22.6747 8.75354 22.5872 8.89104 22.4747 9.01604C22.3497 9.12854 22.2122 9.21604 22.0622 9.27854C21.9122 9.34104 21.7497 9.37854 21.5872 9.37854Z" fill="#302F34"/>
</svg>
