<svg width="16" height="16" viewBox="0 0 16 16" fill="none" xmlns="http://www.w3.org/2000/svg">
<path d="M8.00016 1.33325C11.6822 1.33325 14.6668 4.31859 14.6668 7.99992C14.6668 11.6813 11.6822 14.6666 8.00016 14.6666C4.31816 14.6666 1.3335 11.6813 1.3335 7.99992C1.3335 4.31859 4.31816 1.33325 8.00016 1.33325ZM8.00016 2.44459C4.93683 2.44459 2.44483 4.93659 2.44483 7.99992C2.44483 11.0633 4.93683 13.5553 8.00016 13.5553C11.0635 13.5553 13.5555 11.0633 13.5555 7.99992C13.5555 4.93659 11.0635 2.44459 8.00016 2.44459ZM7.9995 9.66792C8.17613 9.66792 8.34553 9.73809 8.47043 9.86299C8.59533 9.98789 8.6655 10.1573 8.6655 10.3339C8.6655 10.5106 8.59533 10.68 8.47043 10.8049C8.34553 10.9298 8.17613 10.9999 7.9995 10.9999C7.82286 10.9999 7.65346 10.9298 7.52856 10.8049C7.40366 10.68 7.3335 10.5106 7.3335 10.3339C7.3335 10.1573 7.40366 9.98789 7.52856 9.86299C7.65346 9.73809 7.82286 9.66792 7.9995 9.66792ZM7.99616 4.66659C8.1171 4.66643 8.234 4.71011 8.3252 4.78954C8.4164 4.86898 8.47572 4.97877 8.49216 5.09859L8.49683 5.16592L8.4995 8.16725C8.49963 8.29399 8.45162 8.41605 8.36519 8.50875C8.27876 8.60144 8.16035 8.65786 8.03391 8.66658C7.90747 8.6753 7.78243 8.63569 7.68409 8.55574C7.58575 8.47579 7.52144 8.36148 7.50416 8.23592L7.4995 8.16792L7.49683 5.16725C7.49674 5.10154 7.50961 5.03645 7.5347 4.97571C7.55979 4.91497 7.5966 4.85977 7.64304 4.81327C7.68948 4.76677 7.74463 4.72988 7.80533 4.70471C7.86604 4.67954 7.93045 4.66659 7.99616 4.66659Z" fill="#DC3232"/>
</svg>
