<svg width="92" height="107" viewBox="0 0 92 107" fill="none" xmlns="http://www.w3.org/2000/svg">
<g clip-path="url(#clip0_367_8992)">
<path d="M33.5649 99.0425C32.9331 98.9636 32.6962 99.0425 32.4593 98.9636C18.0085 90.2879 8.21667 77.9841 4.50525 61.4213C3.55766 57.2412 3.71558 52.9033 4.82111 48.6443C7.11114 39.4953 14.7709 33.1857 24.1679 32.6336C29.0638 32.3181 33.8018 32.8702 38.066 35.5518C38.3818 37.839 38.6187 40.1263 39.0925 42.2558C39.8822 45.7261 41.6984 48.5654 44.936 50.3006C47.305 51.6414 49.674 51.6414 50.9375 50.3794C52.5958 48.7232 52.5958 46.5148 51.5692 44.7008C50.1478 42.1769 48.4106 39.8108 46.5943 37.6024C45.4098 36.1828 43.8305 34.9997 42.4091 33.8167C43.7515 24.9043 52.2009 21.1185 62.3086 24.8254C62.6245 26.0873 62.9404 27.4281 63.3352 28.6901C64.9145 33.3434 67.8363 36.8926 72.5743 38.5489C74.3905 39.1798 76.3647 39.4165 77.944 37.7602C79.1285 36.4982 79.1285 34.2899 77.865 32.0815C75.8119 28.6112 72.7322 26.1662 69.4156 24.0367C68.2311 23.3269 67.0466 22.6171 65.8621 21.9861C67.4414 8.18376 79.8392 -1.59617 92 3.92476C91.921 2.89944 92 2.03187 91.6841 1.55865C91.2893 1.00655 90.4207 0.691074 89.71 0.533333C82.9978 -0.728594 76.7595 0.060109 71.6267 4.95008C67.7573 8.57811 65.1514 12.9949 63.4142 18.0426C63.1773 18.7524 62.9404 19.4622 62.6245 20.1721C62.6245 20.2509 62.4666 20.3298 62.1507 20.5664C61.44 20.4875 60.5714 20.4876 59.7028 20.3298C49.1213 18.6735 43.5936 21.5129 38.6977 31.3717C37.7501 31.0562 36.6446 30.7407 35.618 30.3463C29.5376 28.2957 23.4572 28.138 17.2978 30.1886C7.26906 33.5012 0.793823 42.098 0.0831223 52.9822C-0.311707 58.8974 0.714859 64.5761 2.84695 70.097C8.05873 83.4261 16.5871 93.9159 29.3797 100.778C30.0114 101.172 30.7221 101.487 31.3538 101.882C31.4328 101.961 31.5118 102.118 31.7487 102.592C29.0638 103.223 26.5369 102.986 24.0099 102.828C21.562 102.749 19.0351 102.513 16.3502 102.355C16.5871 104.406 17.6926 105.194 19.0351 105.668C20.6144 106.141 22.1937 106.772 23.773 106.851C28.0372 107.008 32.3804 107.087 36.7235 106.851C40.1191 106.614 41.0667 104.8 39.5663 102.04C36.3287 96.2031 33.0121 90.3667 29.6955 84.5303C29.1428 83.5839 28.432 82.7952 27.5634 81.691C26.0631 83.4261 26.6948 84.6881 27.2476 85.8711C29.4586 90.1301 31.4328 94.3891 33.5649 99.0425ZM75.575 35.3941C70.1263 34.6842 66.7308 31.2139 66.4939 26.324C70.1263 28.6901 73.6008 30.8196 75.575 35.3941ZM48.8843 47.619C44.2253 46.5148 42.0143 43.36 42.4881 38.5489C45.4888 41.0727 48.0947 43.4388 48.8843 47.619Z" fill="white" fill-opacity="0.75"/>
</g>
<defs>
<clipPath id="clip0_367_8992">
<rect width="92" height="107" fill="white" transform="matrix(-1 0 0 1 92 0)"/>
</clipPath>
</defs>
</svg>
