<svg width="22" height="22" viewBox="0 0 22 22" fill="none" xmlns="http://www.w3.org/2000/svg">
<path d="M1.8335 11C1.83396 8.99032 2.49486 7.03646 3.71448 5.43915C4.93411 3.84184 6.64487 2.68959 8.58347 2.15976C10.5221 1.62992 12.5811 1.75185 14.4436 2.50679C16.3061 3.26172 17.8689 4.60782 18.8915 6.33792C19.9141 8.06801 20.3397 10.0862 20.103 12.0819C19.8663 14.0776 18.9802 15.9402 17.5813 17.3831C16.1823 18.8259 14.348 19.769 12.3605 20.0673C10.3731 20.3655 8.34267 20.0024 6.58183 19.0337L3.01783 20.119C2.85886 20.1674 2.68972 20.1717 2.5285 20.1315C2.36728 20.0912 2.22004 20.0078 2.10253 19.8903C1.98503 19.7728 1.90168 19.6256 1.86139 19.4644C1.82111 19.3031 1.82541 19.134 1.87383 18.975L2.95916 15.4055C2.2199 14.0549 1.83277 12.5398 1.8335 11ZM7.3335 10.0834C7.3335 10.3265 7.43007 10.5596 7.60198 10.7315C7.77389 10.9034 8.00705 11 8.25016 11H13.7502C13.9933 11 14.2264 10.9034 14.3983 10.7315C14.5703 10.5596 14.6668 10.3265 14.6668 10.0834C14.6668 9.84024 14.5703 9.60708 14.3983 9.43517C14.2264 9.26327 13.9933 9.16669 13.7502 9.16669H8.25016C8.00705 9.16669 7.77389 9.26327 7.60198 9.43517C7.43007 9.60708 7.3335 9.84024 7.3335 10.0834ZM8.25016 12.8334C8.00705 12.8334 7.77389 12.9299 7.60198 13.1018C7.43007 13.2737 7.3335 13.5069 7.3335 13.75C7.3335 13.9931 7.43007 14.2263 7.60198 14.3982C7.77389 14.5701 8.00705 14.6667 8.25016 14.6667H11.9168C12.1599 14.6667 12.3931 14.5701 12.565 14.3982C12.7369 14.2263 12.8335 13.9931 12.8335 13.75C12.8335 13.5069 12.7369 13.2737 12.565 13.1018C12.3931 12.9299 12.1599 12.8334 11.9168 12.8334H8.25016Z" fill="#302F34"/>
</svg>
