<svg width="26" height="26" viewBox="0 0 26 26" fill="none" xmlns="http://www.w3.org/2000/svg">
<path fill-rule="evenodd" clip-rule="evenodd" d="M13.1511 21.498L13.8009 20.7658C14.5382 19.9221 15.2017 19.1192 15.7915 18.3572L16.2786 17.7146C18.3127 14.9747 19.3298 12.8008 19.3298 11.193C19.3298 7.76175 16.5638 4.98031 13.1511 4.98031C9.73841 4.98031 6.97241 7.76175 6.97241 11.193C6.97241 12.8008 7.98949 14.975 10.0237 17.7156L10.5107 18.3582C11.3526 19.4367 12.2333 20.4833 13.1511 21.498Z" stroke="#302F34" stroke-linecap="round" stroke-linejoin="round"/>
<path d="M13.1511 13.7335C14.5729 13.7335 15.7256 12.5808 15.7256 11.159C15.7256 9.73717 14.5729 8.58454 13.1511 8.58454C11.7293 8.58454 10.5767 9.73717 10.5767 11.159C10.5767 12.5808 11.7293 13.7335 13.1511 13.7335Z" stroke="#302F34" stroke-linecap="round" stroke-linejoin="round"/>
</svg>
