<svg width="30" height="29" viewBox="0 0 30 29" fill="none" xmlns="http://www.w3.org/2000/svg">
<path d="M13.5517 14.5L6.0353 6.98536C5.95104 6.9011 5.8842 6.80107 5.8386 6.69098C5.793 6.58089 5.76953 6.4629 5.76953 6.34374C5.76953 6.22457 5.793 6.10658 5.8386 5.99649C5.8842 5.8864 5.95104 5.78637 6.0353 5.70211C6.11956 5.61785 6.21959 5.55101 6.32968 5.50541C6.43977 5.45981 6.55777 5.43634 6.67693 5.43634C6.79609 5.43634 6.91408 5.45981 7.02417 5.50541C7.13426 5.55101 7.23429 5.61785 7.31855 5.70211L14.8332 13.2185L22.3478 5.70211C22.518 5.53194 22.7488 5.43634 22.9894 5.43634C23.2301 5.43634 23.4609 5.53194 23.6311 5.70211C23.8012 5.87228 23.8968 6.10308 23.8968 6.34374C23.8968 6.58439 23.8012 6.81519 23.6311 6.98536L16.1146 14.5L23.6311 22.0146C23.8012 22.1848 23.8968 22.4156 23.8968 22.6562C23.8968 22.8969 23.8012 23.1277 23.6311 23.2979C23.4609 23.468 23.2301 23.5636 22.9894 23.5636C22.7488 23.5636 22.518 23.468 22.3478 23.2979L14.8332 15.7814L7.31855 23.2979C7.14838 23.468 6.91758 23.5636 6.67693 23.5636C6.43627 23.5636 6.20547 23.468 6.0353 23.2979C5.86513 23.1277 5.76953 22.8969 5.76953 22.6562C5.76953 22.4156 5.86513 22.1848 6.0353 22.0146L13.5517 14.5Z" fill="#302F34"/>
</svg>
