<svg width="20" height="20" viewBox="0 0 20 20" fill="none" xmlns="http://www.w3.org/2000/svg">
<path d="M5.0013 3.02292C4.61517 3.29136 4.29979 3.6493 4.0821 4.06616C3.86442 4.48302 3.75092 4.94639 3.7513 5.41667C3.7512 5.9199 3.8813 6.4146 4.12895 6.85267C4.37661 7.29074 4.7334 7.65729 5.16464 7.91667M15.0013 3.02292C15.3874 3.29136 15.7028 3.6493 15.9205 4.06616C16.1382 4.48302 16.2517 4.94639 16.2513 5.41667C16.2518 5.88701 16.1383 6.35047 15.9206 6.7674C15.7029 7.18434 15.3875 7.54235 15.0013 7.81083M18.3346 17.5V17C18.3346 15.1333 18.3346 14.2 17.9713 13.4867C17.6517 12.8595 17.1418 12.3496 16.5146 12.03M1.66797 17.5V17C1.66797 15.1333 1.66797 14.2 2.0313 13.4867C2.35088 12.8595 2.86079 12.3496 3.48797 12.03M10.0013 8.33333C10.3843 8.33333 10.7636 8.25789 11.1175 8.11132C11.4713 7.96474 11.7929 7.7499 12.0637 7.47906C12.3345 7.20822 12.5494 6.88669 12.696 6.53283C12.8425 6.17896 12.918 5.79969 12.918 5.41667C12.918 5.03364 12.8425 4.65437 12.696 4.30051C12.5494 3.94664 12.3345 3.62511 12.0637 3.35427C11.7929 3.08343 11.4713 2.86859 11.1175 2.72202C10.7636 2.57544 10.3843 2.5 10.0013 2.5C9.22775 2.5 8.48589 2.80729 7.93891 3.35427C7.39193 3.90125 7.08464 4.64312 7.08464 5.41667C7.08464 6.19021 7.39193 6.93208 7.93891 7.47906C8.48589 8.02604 9.22775 8.33333 10.0013 8.33333ZM5.0013 16.6667V17.5H15.0013V16.6667C15.0013 15.1137 15.0013 14.3371 14.7476 13.7242C14.4091 12.9075 13.7602 12.2586 12.9434 11.9204C12.3313 11.6667 11.5546 11.6667 10.0013 11.6667C8.44797 11.6667 7.67172 11.6667 7.05922 11.9204C6.65475 12.0879 6.28724 12.3335 5.97768 12.643C5.66812 12.9526 5.42257 13.3201 5.25505 13.7246C5.0013 14.3371 5.0013 15.1137 5.0013 16.6667Z" stroke="#302F34" stroke-width="1.2" stroke-linecap="round" stroke-linejoin="round"/>
</svg>
