<svg width="16" height="16" viewBox="0 0 16 16" fill="none" xmlns="http://www.w3.org/2000/svg">
<path fill-rule="evenodd" clip-rule="evenodd" d="M8.39545 15.5053L8.38811 15.5067L8.34078 15.53L8.32745 15.5327L8.31811 15.53L8.27078 15.5067C8.26367 15.5045 8.25834 15.5056 8.25478 15.51L8.25211 15.5167L8.24078 15.802L8.24411 15.8153L8.25078 15.824L8.32011 15.8733L8.33011 15.876L8.33811 15.8733L8.40745 15.824L8.41545 15.8133L8.41811 15.802L8.40678 15.5173C8.405 15.5102 8.40123 15.5062 8.39545 15.5053ZM8.57211 15.43L8.56345 15.4313L8.44011 15.4933L8.43345 15.5L8.43145 15.5073L8.44345 15.794L8.44678 15.802L8.45211 15.8067L8.58611 15.8687C8.59456 15.8709 8.601 15.8691 8.60545 15.8633L8.60811 15.854L8.58545 15.4447C8.58323 15.4367 8.57878 15.4318 8.57211 15.43ZM8.09545 15.4313C8.09251 15.4296 8.089 15.429 8.08565 15.4297C8.08229 15.4305 8.07936 15.4325 8.07745 15.4353L8.07345 15.4447L8.05078 15.854C8.05123 15.862 8.055 15.8673 8.06211 15.87L8.07211 15.8687L8.20611 15.8067L8.21278 15.8013L8.21545 15.794L8.22678 15.5073L8.22478 15.4993L8.21811 15.4927L8.09545 15.4313Z" fill="#302F34"/>
<path fill-rule="evenodd" clip-rule="evenodd" d="M7.05927 1.40001C7.29526 1.16433 7.61101 1.02565 7.94423 1.01133C8.27745 0.997015 8.60393 1.1081 8.85927 1.32268L8.9446 1.40068L10.2113 2.66668H12.0019C12.3382 2.66674 12.662 2.79386 12.9085 3.02257C13.1551 3.25128 13.306 3.56469 13.3313 3.90001L13.3353 4.00001V5.79068L14.6019 7.05735C14.8378 7.29337 14.9766 7.60926 14.9909 7.94263C15.0052 8.27601 14.894 8.60263 14.6793 8.85801L14.6013 8.94268L13.3346 10.2093V12C13.3347 12.3364 13.2077 12.6604 12.9789 12.907C12.7502 13.1537 12.4367 13.3048 12.1013 13.33L12.0019 13.3333H10.2119L8.94527 14.6C8.70924 14.8359 8.39335 14.9747 8.05998 14.989C7.7266 15.0033 7.39998 14.8921 7.1446 14.6773L7.05993 14.6L5.79327 13.3333H4.00193C3.66555 13.3335 3.34156 13.2064 3.0949 12.9777C2.84825 12.749 2.69716 12.4354 2.67193 12.1L2.6686 12V10.2093L1.40193 8.94268C1.16606 8.70665 1.02727 8.39076 1.01295 8.05739C0.99863 7.72402 1.10983 7.39739 1.3246 7.14201L1.40193 7.05735L2.6686 5.79068V4.00001C2.66866 3.66374 2.79578 3.33991 3.02449 3.0934C3.2532 2.84689 3.56661 2.6959 3.90193 2.67068L4.00193 2.66668H5.7926L7.05927 1.40001ZM10.0546 5.98868L7.22527 8.81801L6.0466 7.63934C5.92151 7.51434 5.75188 7.44415 5.57503 7.44421C5.39818 7.44427 5.22861 7.51458 5.1036 7.63968C4.97859 7.76477 4.9084 7.9344 4.90846 8.11125C4.90853 8.28809 4.97884 8.45767 5.10393 8.58268L6.7066 10.1853C6.7747 10.2535 6.85556 10.3075 6.94455 10.3444C7.03355 10.3813 7.12893 10.4003 7.22527 10.4003C7.3216 10.4003 7.41699 10.3813 7.50598 10.3444C7.59497 10.3075 7.67583 10.2535 7.74393 10.1853L10.9973 6.93134C11.1187 6.80561 11.1859 6.63721 11.1844 6.46241C11.1829 6.28761 11.1128 6.1204 10.9891 5.9968C10.8655 5.87319 10.6983 5.80308 10.5235 5.80156C10.3487 5.80004 10.1803 5.86724 10.0546 5.98868Z" fill="#302F34"/>
</svg>
