<svg width="17" height="17" viewBox="0 0 17 17" fill="none" xmlns="http://www.w3.org/2000/svg">
<path d="M4.33073 2.91833C4.02182 3.13308 3.76952 3.41944 3.59537 3.75293C3.42123 4.08642 3.33042 4.45712 3.33073 4.83333C3.33064 5.23592 3.43472 5.63168 3.63285 5.98214C3.83098 6.3326 4.11641 6.62583 4.4614 6.83333M12.3307 2.91833C12.6396 3.13308 12.8919 3.41944 13.0661 3.75293C13.2402 4.08642 13.331 4.45712 13.3307 4.83333C13.3311 5.20961 13.2403 5.58037 13.0662 5.91392C12.892 6.24747 12.6397 6.53388 12.3307 6.74867M14.9974 14.5V14.1C14.9974 12.6067 14.9974 11.86 14.7067 11.2893C14.4511 10.7876 14.0431 10.3797 13.5414 10.124M1.66406 14.5V14.1C1.66406 12.6067 1.66406 11.86 1.95473 11.2893C2.21039 10.7876 2.61832 10.3797 3.12006 10.124M8.33073 7.16667C8.63715 7.16667 8.94056 7.10631 9.22366 6.98905C9.50675 6.87179 9.76398 6.69992 9.98065 6.48325C10.1973 6.26658 10.3692 6.00935 10.4864 5.72626C10.6037 5.44317 10.6641 5.13975 10.6641 4.83333C10.6641 4.52692 10.6037 4.2235 10.4864 3.94041C10.3692 3.65731 10.1973 3.40009 9.98065 3.18342C9.76398 2.96675 9.50675 2.79488 9.22366 2.67761C8.94056 2.56035 8.63715 2.5 8.33073 2.5C7.71189 2.5 7.1184 2.74583 6.68081 3.18342C6.24323 3.621 5.9974 4.21449 5.9974 4.83333C5.9974 5.45217 6.24323 6.04566 6.68081 6.48325C7.1184 6.92083 7.71189 7.16667 8.33073 7.16667ZM4.33073 13.8333V14.5H12.3307V13.8333C12.3307 12.591 12.3307 11.9697 12.1277 11.4793C11.857 10.826 11.3378 10.3069 10.6844 10.0363C10.1947 9.83333 9.5734 9.83333 8.33073 9.83333C7.08806 9.83333 6.46706 9.83333 5.97706 10.0363C5.65349 10.1703 5.35948 10.3668 5.11183 10.6144C4.86418 10.8621 4.66774 11.1561 4.53373 11.4797C4.33073 11.9697 4.33073 12.591 4.33073 13.8333Z" stroke="#85754F" stroke-width="1.2" stroke-linecap="round" stroke-linejoin="round"/>
</svg>
