<svg width="17" height="17" viewBox="0 0 17 17" fill="none" xmlns="http://www.w3.org/2000/svg">
<path d="M14.9974 8.49998C14.9974 12.182 12.0127 15.1666 8.33073 15.1666C4.64873 15.1666 1.66406 12.182 1.66406 8.49998C1.66406 4.81798 4.64873 1.83331 8.33073 1.83331" stroke="#85754F" stroke-width="1.2" stroke-linecap="round" stroke-linejoin="round"/>
<path d="M12.9961 3.65729L13.1104 4.00929H13.4804L13.1811 4.22662L13.2954 4.57862L12.9961 4.36129L12.6967 4.57862L12.8111 4.22662L12.5117 4.00929H12.8817L12.9961 3.65729Z" stroke="#85754F" stroke-width="1.2"/>
<path d="M10.332 6.83331C10.332 5.72874 9.4366 4.83331 8.33203 4.83331C7.22746 4.83331 6.33203 5.72874 6.33203 6.83331V10.8333C6.33203 11.9379 7.22746 12.8333 8.33203 12.8333C9.4366 12.8333 10.332 11.9379 10.332 10.8333V6.83331Z" stroke="#85754F" stroke-width="1.2" stroke-linecap="round" stroke-linejoin="round"/>
<path d="M6.33073 8.83331C5.66406 8.83331 4.66406 9.53931 4.66406 10.8333V14.0946M10.3307 8.83331C10.9974 8.83331 11.9974 9.53931 11.9974 10.8333V14" stroke="#85754F" stroke-width="1.2" stroke-linecap="round" stroke-linejoin="round"/>
</svg>
