<svg width="51" height="52" viewBox="0 0 51 52" fill="none" xmlns="http://www.w3.org/2000/svg">
<circle cx="25.5" cy="26" r="25.5" fill="#FDC41F"/>
<path d="M19.459 22.375L25.5007 26.6042L31.5423 22.375" stroke="#302F34" stroke-linecap="round" stroke-linejoin="round"/>
<path d="M13.417 32.041V19.9577C13.417 19.3167 13.6716 18.7021 14.1248 18.2488C14.578 17.7956 15.1927 17.541 15.8337 17.541H35.167C35.8079 17.541 36.4226 17.7956 36.8758 18.2488C37.329 18.7021 37.5837 19.3167 37.5837 19.9577V32.041C37.5837 32.682 37.329 33.2966 36.8758 33.7499C36.4226 34.2031 35.8079 34.4577 35.167 34.4577H15.8337C15.1927 34.4577 14.578 34.2031 14.1248 33.7499C13.6716 33.2966 13.417 32.682 13.417 32.041Z" stroke="#302F34"/>
</svg>
