<svg width="52" height="52" viewBox="0 0 52 52" fill="none" xmlns="http://www.w3.org/2000/svg">
<circle cx="26" cy="26" r="25.5" fill="#FDC41F"/>
<path d="M25.9163 15C28.8558 15 31.6749 16.1677 33.7534 18.2462C35.832 20.3248 36.9997 23.1439 36.9997 26.0833C36.9997 29.0228 35.832 31.8419 33.7534 33.9204C31.6749 35.999 28.8558 37.1667 25.9163 37.1667C22.9769 37.1667 20.1578 35.999 18.0792 33.9204C16.0007 31.8419 14.833 29.0228 14.833 26.0833C14.833 23.1439 16.0007 20.3248 18.0792 18.2462C20.1578 16.1677 22.9769 15 25.9163 15ZM25.9163 16.1667C23.2863 16.1667 20.7639 17.2115 18.9042 19.0712C17.0445 20.9309 15.9997 23.4533 15.9997 26.0833C15.9997 28.7134 17.0445 31.2357 18.9042 33.0955C20.7639 34.9552 23.2863 36 25.9163 36C27.2186 36 28.5081 35.7435 29.7113 35.2451C30.9144 34.7468 32.0076 34.0163 32.9285 33.0955C33.8493 32.1746 34.5798 31.0814 35.0781 29.8783C35.5765 28.6751 35.833 27.3856 35.833 26.0833C35.833 23.4533 34.7882 20.9309 32.9285 19.0712C31.0687 17.2115 28.5464 16.1667 25.9163 16.1667ZM25.333 19.6667H26.4997V25.99L31.983 29.1517L31.3997 30.1667L25.333 26.6667V19.6667Z" fill="black"/>
</svg>
