<svg width="52" height="52" viewBox="0 0 52 52" fill="none" xmlns="http://www.w3.org/2000/svg">
<circle cx="26" cy="26" r="25.5" fill="#FDC41F"/>
<path fill-rule="evenodd" clip-rule="evenodd" d="M26.7305 39.5745L27.7302 38.448C28.8646 37.15 29.8854 35.9148 30.7926 34.7424L31.542 33.7538C34.6715 29.5386 36.2362 26.1942 36.2362 23.7206C36.2362 18.4417 31.9808 14.1626 26.7305 14.1626C21.4802 14.1626 17.2249 18.4417 17.2249 23.7206C17.2249 26.1942 18.7896 29.5391 21.9191 33.7554L22.6684 34.744C23.9637 36.4032 25.3186 38.0134 26.7305 39.5745Z" stroke="#302F34" stroke-linecap="round" stroke-linejoin="round"/>
<path d="M26.7312 27.6319C28.9186 27.6319 30.6919 25.8586 30.6919 23.6712C30.6919 21.4837 28.9186 19.7104 26.7312 19.7104C24.5438 19.7104 22.7705 21.4837 22.7705 23.6712C22.7705 25.8586 24.5438 27.6319 26.7312 27.6319Z" stroke="#302F34" stroke-linecap="round" stroke-linejoin="round"/>
</svg>
