<svg width="51" height="52" viewBox="0 0 51 52" fill="none" xmlns="http://www.w3.org/2000/svg">
<circle cx="25.5" cy="26" r="25.5" fill="#FDC41F"/>
<path d="M29.9958 35.3543C28.9599 35.3543 27.8691 35.1068 26.7416 34.6302C25.6416 34.1627 24.5324 33.521 23.4508 32.7418C22.3783 31.9535 21.3424 31.0735 20.3616 30.111C19.3899 29.1302 18.5099 28.0943 17.7308 27.031C16.9424 25.931 16.3099 24.831 15.8608 23.7677C15.3841 22.631 15.1458 21.531 15.1458 20.4952C15.1458 19.7802 15.2741 19.1018 15.5216 18.4693C15.7783 17.8185 16.1908 17.2135 16.7499 16.691C17.4558 15.9943 18.2624 15.646 19.1241 15.646C19.4816 15.646 19.8483 15.7285 20.1599 15.8752C20.5174 16.0402 20.8199 16.2877 21.0399 16.6177L23.1666 19.6152C23.3591 19.881 23.5058 20.1377 23.6066 20.3943C23.7258 20.6693 23.7899 20.9443 23.7899 21.2102C23.7899 21.5585 23.6891 21.8977 23.4966 22.2185C23.3591 22.466 23.1483 22.7318 22.8824 22.9977L22.2591 23.6485C22.2683 23.676 22.2774 23.6943 22.2866 23.7127C22.3966 23.9052 22.6166 24.2352 23.0383 24.7302C23.4874 25.2435 23.9091 25.711 24.3308 26.1418C24.8716 26.6735 25.3208 27.0952 25.7424 27.4435C26.2649 27.8835 26.6041 28.1035 26.8058 28.2043L26.7874 28.2502L27.4566 27.5902C27.7408 27.306 28.0158 27.0952 28.2816 26.9577C28.7858 26.646 29.4274 26.591 30.0691 26.8568C30.3074 26.9577 30.5641 27.0952 30.8391 27.2877L33.8824 29.451C34.2216 29.6802 34.4691 29.9735 34.6158 30.3218C34.7533 30.6702 34.8174 30.991 34.8174 31.3118C34.8174 31.7518 34.7166 32.1918 34.5241 32.6043C34.3316 33.0168 34.0933 33.3743 33.7908 33.7043C33.2683 34.2818 32.6999 34.6943 32.0399 34.9602C31.4074 35.2168 30.7199 35.3543 29.9958 35.3543ZM19.1241 17.021C18.6199 17.021 18.1524 17.241 17.7033 17.681C17.2816 18.0752 16.9883 18.506 16.8049 18.9735C16.6124 19.4502 16.5208 19.9543 16.5208 20.4952C16.5208 21.3477 16.7224 22.2735 17.1258 23.2268C17.5383 24.1985 18.1158 25.2068 18.8491 26.2152C19.5824 27.2235 20.4166 28.2043 21.3333 29.1302C22.2499 30.0377 23.2399 30.881 24.2574 31.6235C25.2474 32.3477 26.2649 32.9343 27.2733 33.356C28.8408 34.0252 30.3074 34.181 31.5174 33.6768C31.9849 33.4843 32.3974 33.191 32.7733 32.7693C32.9841 32.5402 33.1491 32.2927 33.2866 31.9993C33.3966 31.7702 33.4516 31.5318 33.4516 31.2935C33.4516 31.1468 33.4241 31.0002 33.3508 30.8352C33.3233 30.7802 33.2683 30.6793 33.0941 30.5602L30.0508 28.3968C29.8674 28.2685 29.7024 28.1768 29.5466 28.1127C29.3449 28.0302 29.2624 27.9477 28.9508 28.1402C28.7674 28.2318 28.6024 28.3693 28.4191 28.5527L27.7224 29.2402C27.3649 29.5885 26.8149 29.671 26.3933 29.5152L26.1458 29.4052C25.7699 29.2035 25.3299 28.8918 24.8441 28.4793C24.4041 28.1035 23.9274 27.6635 23.3499 27.0952C22.9008 26.6368 22.4516 26.151 21.9841 25.6102C21.5533 25.106 21.2416 24.6752 21.0491 24.3177L20.9391 24.0427C20.8841 23.8318 20.8658 23.7127 20.8658 23.5843C20.8658 23.2543 20.9849 22.961 21.2141 22.7318L21.9016 22.0168C22.0849 21.8335 22.2224 21.6593 22.3141 21.5035C22.3874 21.3843 22.4149 21.2835 22.4149 21.1918C22.4149 21.1185 22.3874 21.0085 22.3416 20.8985C22.2774 20.7518 22.1766 20.5868 22.0483 20.4127L19.9216 17.406C19.8299 17.2777 19.7199 17.186 19.5824 17.1218C19.4358 17.0577 19.2799 17.021 19.1241 17.021ZM26.7874 28.2593L26.6408 28.8827L26.8883 28.241C26.8424 28.2318 26.8058 28.241 26.7874 28.2593Z" fill="#302F34"/>
</svg>
