<svg width="127" height="126" viewBox="0 0 127 126" fill="none" xmlns="http://www.w3.org/2000/svg">
<path d="M69.3826 79.6554C69.0641 79.6554 68.7656 79.5758 68.487 79.4166C67.2929 78.8196 66.9944 77.1479 67.7706 75.5956C67.8303 75.4762 68.0094 75.4165 68.1288 75.4762C68.2482 75.5359 68.3079 75.715 68.2482 75.8344C67.5914 77.0882 67.8302 78.4613 68.7258 78.939C69.6214 79.4166 70.8751 78.7599 71.5319 77.5658C71.5916 77.3867 71.7707 77.3867 71.8901 77.4464C72.0095 77.5061 72.0692 77.6852 72.0095 77.8046C71.4125 78.939 70.3378 79.6554 69.3826 79.6554Z" fill="#302F34"/>
<path d="M97.7417 30.1615C97.7019 30.1615 97.6621 30.1416 97.6223 30.1018C97.5028 30.0421 97.4431 29.863 97.5028 29.7436C98.0999 28.6092 98.279 27.2957 97.9805 26.2808C97.8014 25.624 97.3834 25.0867 96.8461 24.7882C96.3088 24.5494 95.652 24.4897 94.9953 24.7285C93.9803 25.027 93.0251 25.9225 92.428 27.1166C92.3683 27.236 92.1892 27.2957 92.0698 27.236C91.9504 27.1763 91.8907 26.9972 91.9504 26.8778C92.5475 25.5643 93.6818 24.5494 94.8162 24.1911C95.652 23.8926 96.4282 23.9523 97.0849 24.3105C97.8014 24.6688 98.279 25.2658 98.5178 26.1016C98.876 27.2957 98.6969 28.7286 97.9805 29.9824C97.9208 30.1018 97.8611 30.1615 97.7417 30.1615Z" fill="#302F34"/>
<path fill-rule="evenodd" clip-rule="evenodd" d="M94.0994 95.4773C93.3232 95.4773 92.6665 94.8205 92.6665 93.9847C92.6068 93.7459 92.8456 93.5667 93.2038 93.2085C93.2635 93.1488 93.3232 93.0891 93.3829 93.0294C89.9798 86.88 87.7111 80.1932 86.6365 75.9542C84.9648 69.0286 83.4722 63.4762 82.2184 59.4761C81.4423 56.8491 80.7258 54.8789 80.1885 53.6251C78.875 50.8191 78.5168 46.9383 80.0094 45.804C80.6064 45.3263 81.6811 45.1472 83.5916 46.7592C85.4424 48.3712 86.8753 51.0579 88.0694 53.446C88.1092 53.446 88.129 53.446 88.129 53.446C88.3281 53.8838 88.5271 54.3018 88.7261 54.6998C90.5172 58.3417 92.1889 61.7448 94.4576 61.8045C94.577 61.8045 94.7561 61.8045 94.8158 61.7448C94.9949 61.506 94.8756 60.9686 94.7562 60.4313C94.577 59.5955 94.3979 58.6402 94.6367 57.7447C94.995 56.4312 95.3532 55.4162 95.592 54.6401C96.2487 52.849 96.3681 52.3713 95.9502 51.7146C95.8706 51.5554 95.7512 51.3365 95.592 51.0579C95.1143 50.1026 94.2785 48.4906 92.8456 47.8339C91.6516 47.2368 90.159 46.9383 88.6664 46.6995C88.547 46.6995 88.4276 46.5204 88.4873 46.401C88.4873 46.2219 88.6664 46.1622 88.7858 46.1622C90.2784 46.401 91.8307 46.7592 93.0844 47.3562C94.6964 48.0727 95.5323 49.8041 96.0696 50.8191C96.189 51.0579 96.3084 51.2967 96.4278 51.4161C96.9652 52.3116 96.7264 53.0281 96.1293 54.8192C95.8905 55.5953 95.5323 56.5506 95.174 57.8641C94.9352 58.6402 95.1143 59.5358 95.2935 60.3119C95.4726 61.088 95.592 61.6851 95.2935 62.0433C95.0944 62.2821 94.8159 62.3816 94.4576 62.3418C91.8307 62.2821 90.0993 58.6999 88.2485 54.9386C88.0096 54.5406 87.7907 54.1226 87.5917 53.6848C86.3977 51.2967 85.0245 48.7294 83.2333 47.2368C82.3378 46.4607 81.1437 45.6249 80.3676 46.2219C79.2332 47.0577 79.4123 50.6399 80.6661 53.3863C81.2631 54.6401 81.9199 56.6103 82.7557 59.2969C84.0095 63.2971 85.5021 68.9092 87.1738 75.8348C88.2485 80.0738 90.5769 86.7605 93.98 92.91C94.0994 93.1488 93.8606 93.3279 93.5621 93.6264C93.4427 93.7459 93.2038 93.925 93.2038 94.0444C93.2038 94.522 93.6218 94.8802 94.1591 94.8802C98.219 94.8802 107.174 93.7459 111.831 89.3875C111.951 89.2681 112.01 89.1487 112.01 88.9696C112.01 88.8104 111.951 88.691 111.831 88.6114C111.712 88.6114 111.533 88.6114 111.413 88.6114C110.995 88.6114 110.757 88.6711 110.637 88.4919C109.981 87.4173 109.383 77.3871 108.846 66.2823C108.667 62.8194 108.488 60.1328 108.428 59.4164C108.13 57.0282 107.951 56.2521 105.682 53.446C104.906 52.431 104.07 51.0579 103.174 49.5653C101.562 46.8189 99.7115 43.774 97.8607 42.9382C96.6666 42.4606 94.4576 42.0426 91.4127 41.7441C91.2336 41.7441 91.1739 41.6247 91.1739 41.4456C91.1739 41.2665 91.2933 41.2068 91.4725 41.2068C94.577 41.5053 96.8458 41.9232 98.0398 42.4606C100.129 43.2964 101.921 46.3413 103.652 49.2668C104.548 50.7593 105.324 52.1325 106.1 53.0878C108.369 55.8341 108.667 56.7297 108.966 59.3567C109.025 60.0731 109.204 62.8194 109.384 66.2823C109.742 73.387 110.458 86.5217 111.055 88.074C111.175 88.074 111.294 88.074 111.354 88.074C111.772 88.0143 112.01 88.0143 112.13 88.1337C112.369 88.3725 112.548 88.6711 112.548 88.9696C112.548 89.2681 112.428 89.5666 112.19 89.8054C107.413 94.2235 98.2787 95.4176 94.1591 95.4773C94.1591 95.4773 94.1392 95.4773 94.0994 95.4773Z" fill="#302F34"/>
<path d="M83.2335 45.2665C83.1937 45.2665 83.154 45.2665 83.1142 45.2665C81.4425 44.3112 80.6663 43.1768 80.9051 42.2216C81.1439 41.326 82.2186 40.7887 83.6515 40.7887C84.0495 40.7887 84.567 40.8086 85.2038 40.8484C85.3232 40.8484 85.4426 40.9678 85.4426 41.0872C85.4426 41.2663 85.3232 41.3857 85.1441 41.3857C84.547 41.3459 84.0495 41.326 83.6515 41.326C82.4574 41.326 81.6216 41.744 81.4424 42.4007C81.2633 43.0574 81.9798 43.953 83.353 44.7888C83.4724 44.8485 83.5321 45.0276 83.4724 45.1471C83.4127 45.2665 83.353 45.2665 83.2335 45.2665Z" fill="#302F34"/>
<path fill-rule="evenodd" clip-rule="evenodd" d="M94.5182 62.3418C94.4784 62.3816 94.4586 62.3816 94.4586 62.3418C92.548 62.3418 91.1748 60.4313 90.2196 58.7596C90.1599 58.6999 90.1599 58.5805 90.2196 58.4611C90.2793 58.4014 90.3987 58.3417 90.5181 58.3417C92.0704 58.5805 93.9809 59.0581 94.9362 59.2969C95.0556 59.3566 95.1153 59.4163 95.175 59.5357C95.2148 59.8144 95.2546 60.0731 95.2944 60.3119C95.4735 61.088 95.5929 61.6851 95.2944 62.0433C95.0954 62.2423 94.8367 62.3418 94.5182 62.3418ZM94.8168 61.7448C94.9959 61.506 94.8765 60.9686 94.7571 60.3716C94.7173 60.2124 94.6775 60.0333 94.6377 59.8343C93.7421 59.5954 92.3092 59.2372 90.9957 58.9984C92.1898 60.9089 93.3242 61.8045 94.4586 61.8045C94.578 61.8045 94.7571 61.8045 94.8168 61.7448Z" fill="#302F34"/>
<path fill-rule="evenodd" clip-rule="evenodd" d="M94.816 58.9983C94.7762 58.9983 94.7364 58.9983 94.6966 58.9983C93.5025 58.6401 91.6517 57.6848 90.6367 57.1475C90.3382 57.0281 90.0994 56.9087 89.98 56.849C89.9203 56.849 89.8009 56.849 89.4427 56.9087C89.3233 56.9684 89.2039 56.9087 89.1441 56.7893C88.8257 56.1922 88.5272 55.5753 88.2486 54.9385C88.0098 54.5404 87.7909 54.1225 87.5919 53.6847C87.1142 52.6697 86.6963 51.8936 86.2784 51.1771C86.2386 51.0975 86.2386 51.0179 86.2784 50.9383C86.3182 50.8587 86.3779 50.799 86.4575 50.7592C87.771 50.401 90.1591 49.804 91.0547 49.8637C92.4278 49.9234 94.816 51.2965 96.6071 52.4906C96.6668 52.5503 96.7265 52.61 96.7265 52.7294C96.6668 53.2668 96.4877 53.8638 96.1295 54.819C95.8906 55.5952 95.5324 56.5505 95.1742 57.8639C95.0946 58.1027 95.0548 58.4013 95.0548 58.7595C95.0548 58.8391 95.015 58.9187 94.9354 58.9983C94.8956 58.9983 94.8558 58.9983 94.816 58.9983ZM90.0397 56.3116C90.0795 56.3116 90.0994 56.3116 90.0994 56.3116C90.1591 56.3116 90.2785 56.3713 90.8756 56.6699C91.7711 57.1475 93.3831 57.9236 94.5175 58.3415C94.5573 58.1425 94.5971 57.9435 94.6369 57.7445C94.9951 56.431 95.3533 55.4161 95.5921 54.6399C95.8906 53.8638 96.0698 53.2668 96.1295 52.8488C93.801 51.2965 91.9502 50.4607 90.9949 50.401C90.4576 50.401 88.965 50.6995 86.9351 51.2368C87.2933 51.8936 87.6516 52.5503 88.0695 53.4459C88.1093 53.4459 88.1292 53.4459 88.1292 53.4459C88.3282 53.8837 88.5272 54.3016 88.7262 54.6996C89.0048 55.2569 89.2835 55.8141 89.5621 56.3713C89.8606 56.3116 89.98 56.3116 90.0397 56.3116Z" fill="#302F34"/>
<path d="M86.398 51.0577C86.3184 51.0577 86.2586 51.0577 86.2188 51.0577C86.0994 50.9383 86.0397 50.8189 86.1592 50.6398L97.5028 29.7436C98.0999 28.6092 98.279 27.2957 97.9804 26.2808C97.8013 25.624 97.3834 25.0867 96.8461 24.7882C96.3088 24.5494 95.652 24.4897 94.9953 24.7285C93.9803 25.027 93.0251 25.9225 92.428 27.1166L82.8158 46.4605C82.7561 46.5799 82.5769 46.6396 82.4575 46.5799C82.3381 46.5202 82.2784 46.3411 82.3381 46.2217L91.9504 26.8778C92.5474 25.5643 93.6818 24.5494 94.8162 24.1911C95.652 23.8926 96.4281 23.9523 97.0849 24.3105C97.8013 24.6688 98.279 25.2658 98.5178 26.1016C98.876 27.2957 98.6969 28.7286 97.9804 29.9824L86.6368 50.9383C86.5771 50.998 86.4577 51.0577 86.398 51.0577Z" fill="#302F34"/>
<path d="M69.3826 79.6556C69.0641 79.6556 68.7656 79.576 68.487 79.4168C67.2929 78.8197 66.9944 77.148 67.7706 75.5957L79.5322 51.8337C79.5919 51.7143 79.771 51.6546 79.8904 51.7143C80.0695 51.774 80.1292 51.9531 80.0098 52.0726L68.2482 75.8345C67.5914 77.0883 67.8302 78.4615 68.7258 78.9391C69.6214 79.4168 70.8751 78.76 71.5319 77.566L81.9203 58.3414C82.0397 58.222 82.1591 58.1623 82.3382 58.2817C82.4576 58.3414 82.5173 58.5205 82.4576 58.6399L72.0095 77.8048C71.4125 78.9391 70.3378 79.6556 69.3826 79.6556Z" fill="#302F34"/>
<path fill-rule="evenodd" clip-rule="evenodd" d="M78.4574 65.6848C78.3778 65.6848 78.2982 65.645 78.2186 65.5654C78.1589 65.446 78.1589 65.3266 78.2186 65.2669L80.965 60.1921C81.0048 60.1125 81.0645 60.0528 81.1441 60.013C81.6217 59.8936 82.0993 59.7742 82.577 59.6548C82.7561 59.5951 82.8755 59.7145 82.9352 59.8339C83.2934 61.0877 83.7113 62.4609 84.1292 63.9534C84.1292 64.0331 84.1093 64.1127 84.0695 64.1923C84.0297 64.2719 83.97 64.3117 83.8904 64.3117C82.577 64.6102 81.1441 65.0281 79.7112 65.3266L78.5171 65.6251C78.4773 65.6649 78.4574 65.6848 78.4574 65.6848ZM81.3829 60.5503L78.9947 64.9684L79.5918 64.7893C80.9053 64.4908 82.2784 64.1326 83.5322 63.834C83.174 62.5604 82.8158 61.3663 82.4575 60.2518C82.0993 60.3314 81.7411 60.4309 81.3829 60.5503Z" fill="#302F34"/>
<path fill-rule="evenodd" clip-rule="evenodd" d="M75.1734 59.655C73.8002 59.655 72.5465 59.1773 72.0689 58.3415C71.8897 57.9833 71.7106 57.2071 72.6062 56.2519C73.5614 55.2369 76.6063 53.9831 78.9944 53.1473C79.1139 53.0876 79.2333 53.1473 79.293 53.207C79.3527 53.2667 79.3527 53.3861 79.293 53.5055L76.3675 59.4162C76.3277 59.4958 76.268 59.5555 76.1884 59.5953C75.87 59.6351 75.5316 59.655 75.1734 59.655ZM78.5168 53.9234C75.5914 54.9981 73.6211 55.9534 73.0241 56.6101C72.5067 57.1673 72.3674 57.6649 72.6062 58.1027C72.9644 58.8191 74.5167 59.237 75.9496 59.0579L78.5168 53.9234Z" fill="#302F34"/>
<path fill-rule="evenodd" clip-rule="evenodd" d="M72.7861 66.342C72.7463 66.3818 72.7264 66.3818 72.7264 66.342C71.7711 66.1629 71.1144 65.6853 70.7562 65.0882C70.577 64.6703 70.577 64.1927 70.7562 63.7748C70.9353 63.4762 71.4726 62.9389 74.6369 61.924C74.6966 61.924 74.816 61.924 74.9354 62.0434C74.9951 62.1031 74.9951 62.2225 74.9354 62.3419L73.0249 66.2226C72.9652 66.342 72.8458 66.342 72.7861 66.342ZM74.1593 62.7001C71.592 63.5359 71.2935 63.8942 71.2935 64.0136C71.1741 64.2922 71.1741 64.5708 71.2935 64.8494C71.4726 65.2674 71.9502 65.5659 72.607 65.745L74.1593 62.7001Z" fill="#302F34"/>
<path fill-rule="evenodd" clip-rule="evenodd" d="M76.9647 70.8199C76.4473 70.8199 76.0095 70.7999 75.6512 70.7601C75.5318 70.7203 75.4522 70.6606 75.4124 70.581C75.3726 70.5014 75.3726 70.4218 75.4124 70.3422L77.2632 66.9391C77.303 66.8595 77.3627 66.8197 77.4424 66.8197C79.2335 66.2824 82.338 65.3271 84.0694 64.7898C84.149 64.7898 84.2087 64.8097 84.2485 64.8495C84.3281 64.8893 84.3878 64.949 84.4276 65.0286C84.7859 66.4615 85.2038 67.8944 85.562 69.3273C85.6217 69.5064 85.5023 69.6258 85.3829 69.6855C83.2933 70.2228 79.4722 70.8199 76.9647 70.8199ZM76.1289 70.2228C78.3379 70.4019 82.5768 69.8049 84.965 69.2079C84.6068 67.9342 84.2684 66.6804 83.95 65.4465C82.2186 65.9242 79.4126 66.76 77.7409 67.2973L76.1289 70.2228Z" fill="#302F34"/>
<path fill-rule="evenodd" clip-rule="evenodd" d="M106.16 107C104.428 107 102.399 106.761 100.07 106.045C99.9507 106.045 99.891 105.985 99.891 105.866C99.891 105.806 98.5178 100.194 95.8312 95.2385C95.7516 95.1589 95.7516 95.0793 95.8312 94.9997C95.871 94.8803 95.9307 94.8206 96.0103 94.8206C96.3287 94.8206 96.6471 94.8007 96.9655 94.7609C97.6024 94.7211 98.2989 94.6415 99.0552 94.5221C101.981 94.0444 107.414 92.9101 110.996 90.104C111.075 90.0244 111.155 90.0045 111.235 90.0443C111.314 90.0841 111.374 90.1438 111.414 90.2234C113.265 95.5967 115.653 101.328 115.653 101.388C115.693 101.428 115.693 101.487 115.653 101.567C115.653 101.627 113.742 107 106.16 107ZM100.369 105.567C111.891 108.791 114.757 102.403 115.115 101.507C114.817 100.731 112.727 95.6564 111.056 90.7608C107.354 93.5071 102.04 94.5818 99.1746 95.0594C98.3785 95.2186 97.6422 95.2982 96.9655 95.2982C96.8063 95.338 96.6471 95.3579 96.4879 95.3579C98.8761 99.776 100.13 104.612 100.369 105.567Z" fill="#302F34"/>
<path d="M96.1297 92.7906C96.0899 92.7906 96.07 92.7906 96.07 92.7906C95.8909 92.7906 95.7715 92.6712 95.7715 92.4921C95.7715 92.3727 95.8909 92.2533 96.07 92.2533C96.07 92.2533 96.07 92.2533 96.1297 92.2533C96.9656 92.2533 103.533 92.1339 108.548 88.8502C108.667 88.7905 108.847 88.8502 108.906 88.9696C109.026 89.089 108.966 89.2681 108.847 89.3278C103.712 92.6712 96.9656 92.7906 96.1297 92.7906Z" fill="#302F34"/>
<path d="M97.0252 89.8053C95.9506 89.8053 94.8759 89.6858 94.0401 89.3276C93.9206 89.3276 93.8609 89.1485 93.9206 88.9694C93.9803 88.85 94.1594 88.7903 94.2788 88.85C97.2043 90.0441 103.354 88.3127 103.414 88.3127C103.533 88.253 103.712 88.3127 103.772 88.4918C103.772 88.6112 103.712 88.7903 103.533 88.7903C103.354 88.85 100.01 89.8053 97.0252 89.8053Z" fill="#302F34"/>
<path d="M97.4429 62.939C93.0846 62.939 91.6516 60.8494 91.5919 60.7299C91.5322 60.6105 91.5323 60.4314 91.6517 60.3717C91.8308 60.2523 91.9502 60.312 92.0696 60.4314C92.0696 60.4911 93.5025 62.4016 97.6817 62.4016C97.8608 62.4016 97.9802 62.5211 97.9802 62.6405C97.9802 62.8196 97.8608 62.939 97.6817 62.939C97.6021 62.939 97.5225 62.939 97.4429 62.939Z" fill="#302F34"/>
<path d="M93.8014 47.8934C93.3237 47.8934 92.9655 47.8337 92.9655 47.8337C92.7864 47.8337 92.667 47.7143 92.7267 47.5352C92.7267 47.4157 92.9058 47.2963 93.0252 47.2963C93.0252 47.2963 94.8163 47.5949 96.3089 46.8187C96.488 46.759 96.6074 46.8187 96.7269 46.9381C96.7866 47.0575 96.7269 47.2366 96.5477 47.2963C95.5925 47.8337 94.5178 47.8934 93.8014 47.8934Z" fill="#302F34"/>
<path d="M90.4577 57.0282C90.3781 57.0282 90.3184 57.0083 90.2786 56.9685C90.2189 56.9088 89.3233 55.9536 89.5024 53.8639C89.5024 53.7445 89.6815 53.6251 89.8009 53.6251C89.98 53.6251 90.0994 53.8042 90.0397 53.9236C89.8606 55.7147 90.6368 56.5506 90.6368 56.6103C90.7562 56.67 90.7562 56.8491 90.6368 56.9685C90.597 57.0083 90.5373 57.0282 90.4577 57.0282Z" fill="#302F34"/>
<path d="M97.2047 64.3717C96.4285 64.3717 95.8315 64.1926 95.4136 64.0732C95.2942 64.0334 95.2145 64.0135 95.1747 64.0135C94.9956 64.0135 94.8762 63.8344 94.9359 63.715C94.9359 63.5359 95.0553 63.4165 95.2345 63.4762C95.3141 63.4762 95.4335 63.4961 95.5927 63.5359C96.3091 63.715 98.0405 64.2523 99.7719 62.9389C99.8913 62.8195 100.07 62.8792 100.19 62.9986C100.25 63.118 100.25 63.2971 100.13 63.3568C99.1152 64.1329 98.0405 64.3717 97.2047 64.3717Z" fill="#302F34"/>
<path fill-rule="evenodd" clip-rule="evenodd" d="M34.7552 90.8801C34.7154 90.8801 34.6955 90.8801 34.6955 90.8801C26.0385 90.6413 19.5308 86.1038 16.3665 83.4769C16.3068 83.4172 16.2471 83.2978 16.3068 83.1784C16.2471 83.059 15.8292 82.641 15.5904 82.4022C14.9934 81.7455 14.6352 81.3873 14.7546 81.029C14.9934 80.432 15.7098 80.2529 16.4263 80.0141C17.0233 79.835 17.68 79.6559 17.7994 79.2976C20.4861 72.4317 23.1131 66.1629 24.4862 63.0583C25.2027 61.4463 26.6355 59.0582 27.8296 56.9685C28.5461 55.7148 29.2625 54.5804 29.7401 53.6848C30.4566 52.3117 30.9939 51.1176 31.4715 50.0429C32.188 48.4906 32.7253 47.2966 33.5014 46.5204C35.6508 44.2517 42.3376 40.5501 45.4421 39.953C47.3527 39.5351 51.5319 39.5351 54.6962 39.6545C56.1291 39.6545 57.2037 39.7142 57.6814 39.7142C60.1292 38.0425 62.0994 37.6843 63.6517 38.5799C64.2089 38.9381 64.5274 39.4157 64.607 40.0127C64.9055 42.58 60.3083 47.0578 56.6067 50.64C54.935 52.3117 53.4424 53.7445 53.0245 54.5207C52.4872 55.3565 51.4722 57.1476 50.2781 59.2373C47.4721 64.0732 44.0093 70.1033 42.9943 71.2377C42.457 71.8347 42.2779 73.1482 42.039 74.6408C41.9992 74.9592 41.9395 75.2577 41.8599 75.5363C41.5017 77.9245 40.9047 80.3126 39.233 81.9843C38.4569 82.7604 37.4419 84.6113 36.2478 87.477C36.1881 87.6561 36.4866 88.1935 36.7254 88.492C37.0837 89.089 37.4419 89.6263 37.2628 90.104C37.0836 90.5219 36.5463 90.5219 35.8896 90.5816C35.5911 90.6413 35.0537 90.6413 34.994 90.7607C34.9144 90.8403 34.8348 90.8801 34.7552 90.8801ZM16.8442 83.1187C19.9488 85.7456 26.2773 90.0443 34.5761 90.3428C34.8149 90.104 35.2926 90.104 35.8299 90.0443C36.1284 89.9846 36.6657 89.9846 36.7254 89.8652C36.7852 89.6861 36.4866 89.2084 36.2478 88.7905C35.8896 88.2532 35.5911 87.7158 35.7702 87.2382C36.9642 84.3127 37.9792 82.4619 38.8151 81.6261C40.3674 80.0738 40.9644 77.7454 41.3226 75.4766C41.3624 75.1582 41.4221 74.8597 41.5017 74.5811C41.7405 72.9691 41.9794 71.5959 42.5167 70.9392L42.5764 70.8794C43.5316 69.8048 47.1735 63.5359 49.8005 58.9387C50.9946 56.8491 52.0095 55.058 52.5469 54.2222C53.0245 53.3863 54.4574 52.0131 56.2485 50.2817C59.6516 46.9383 64.3682 42.3412 64.0696 40.0724C64.0298 39.6346 63.8109 39.2963 63.4129 39.0575C62.0397 38.2813 60.1889 38.6993 57.9202 40.2516C57.8804 40.2914 57.8207 40.3113 57.7411 40.3113C57.3829 40.3113 56.1888 40.2516 54.6962 40.1919C51.5319 40.1321 47.4124 40.1321 45.5616 40.4904C42.5167 41.0874 36.009 44.6696 33.9194 46.8786C33.2029 47.6548 32.6656 48.7294 32.0089 50.2817C31.5312 51.3564 30.9939 52.5505 30.2178 53.9834C29.7401 54.8192 29.0237 56.0133 28.3072 57.2671C27.1132 59.3567 25.6803 61.6851 25.0235 63.2971C23.5907 66.4017 20.9637 72.6108 18.2771 79.4767C18.0979 80.0738 17.3218 80.3126 16.6054 80.5514C16.068 80.7305 15.471 80.9096 15.2919 81.2082C15.3516 81.3276 15.7695 81.7455 16.0083 81.9843C16.486 82.5216 16.7845 82.8201 16.8442 83.1187ZM43.8301 51.5355C43.7107 51.5355 43.6312 51.5156 43.5913 51.4758C43.3923 51.3166 43.3127 51.0579 43.3525 50.6997C43.4122 49.5653 44.7257 46.6995 46.278 45.9234C47.1139 45.5055 48.5467 45.2069 50.6364 44.9084C51.4125 44.789 52.0095 44.7293 52.308 44.7293L52.4275 44.6696C52.5469 44.6696 52.6663 44.7293 52.726 44.8487C52.7857 44.9681 52.7857 45.0875 52.6663 45.1472C52.2683 45.5851 51.9299 45.9831 51.6513 46.3413C51.3727 46.6597 51.1538 46.8985 50.9946 47.0578C49.5617 48.61 45.2033 51.5355 43.8301 51.5355ZM43.8899 50.9982C44.666 50.9982 48.8453 48.61 50.5767 46.6995C50.7359 46.5005 50.9548 46.2617 51.2334 45.9831C51.3926 45.7841 51.5916 45.5652 51.8304 45.3264C51.512 45.3662 51.1339 45.406 50.696 45.4458C48.7258 45.7443 47.2929 46.0428 46.5168 46.4607C45.5018 46.9383 44.4272 48.6697 44.0093 50.0429C43.8899 50.5803 43.8899 50.8788 43.8899 50.9982Z" fill="#302F34"/>
<path fill-rule="evenodd" clip-rule="evenodd" d="M25.799 103.657C21.4406 103.657 15.2912 102.343 11.5299 95.7761C11.49 95.6965 11.49 95.6169 11.5299 95.5373C11.5299 95.5373 13.6792 89.9251 16.3061 83.1189C16.3459 83.0393 16.4056 82.9995 16.4852 82.9995C16.5648 82.9597 16.6445 82.9796 16.7241 83.0592C19.8286 85.6265 26.2169 90.0445 34.7545 90.343C34.8341 90.343 34.8938 90.3829 34.9336 90.4625C35.0132 90.5421 35.0331 90.6217 34.9933 90.7013C32.844 96.4328 30.9932 102.821 30.9932 102.881C30.9534 102.96 30.8937 103.02 30.8141 103.06C30.7544 103.06 28.6648 103.657 25.799 103.657ZM12.0672 95.6566C17.739 105.388 29.0827 102.881 30.5156 102.582C30.8141 101.567 32.4261 96.0149 34.3366 90.8804C26.0975 90.5221 19.8286 86.3429 16.6643 83.716C14.3359 89.746 12.4254 94.7611 12.0672 95.6566Z" fill="#302F34"/>
<path fill-rule="evenodd" clip-rule="evenodd" d="M45.3822 67.357C45.3026 67.357 45.223 67.3172 45.1434 67.2376C45.0837 67.1182 45.0837 66.9988 45.1434 66.9391C46.3375 64.9689 47.651 62.6404 48.7853 60.6702C48.8649 60.5906 48.9445 60.5309 49.0241 60.4911C50.6361 60.2523 53.084 59.8941 55.4721 59.5358C55.9099 59.4562 56.3279 59.3965 56.7259 59.3567C59.8902 58.8194 62.6962 58.3418 63.7709 59.2373C64.0893 59.4363 64.2685 59.7149 64.3083 60.0732C64.4277 61.5061 62.2186 64.3121 45.4419 67.357C45.4021 67.357 45.3822 67.357 45.3822 67.357ZM49.2032 61.0284C48.1883 62.8195 46.9942 64.9091 45.9195 66.7002C59.3528 64.2524 63.95 61.7449 63.7112 60.1329C63.7112 59.9339 63.6316 59.7747 63.4724 59.6552C62.5171 58.9388 59.5917 59.4164 56.7856 59.8941C56.3876 59.9339 55.9895 59.9936 55.5915 60.0732C53.2034 60.4314 50.8152 60.7896 49.2032 61.0284Z" fill="#302F34"/>
<path fill-rule="evenodd" clip-rule="evenodd" d="M43.8292 51.5356C43.7098 51.5356 43.6302 51.5157 43.5904 51.4759C42.8142 50.9385 44.068 48.4907 44.1277 48.3713C44.1675 48.3315 44.2272 48.2917 44.3068 48.2519C45.3815 47.9534 47.5905 47.416 50.0383 47.2966C50.1577 47.2966 50.2771 47.3563 50.3369 47.4757C50.3966 47.5952 50.3369 47.7146 50.2772 47.7743C48.6652 49.2071 45.0829 51.5356 43.8292 51.5356ZM43.8889 50.9983C44.4262 50.9983 47.1726 49.5654 49.2622 47.9534C47.292 48.0728 45.5606 48.4907 44.5456 48.7295C44.0083 49.8639 43.8292 50.7594 43.8889 50.9983Z" fill="#302F34"/>
<path fill-rule="evenodd" clip-rule="evenodd" d="M50.0382 59.3562C49.9188 59.3562 49.8591 59.2965 49.7994 59.1771C49.7397 59.1174 49.7397 58.998 49.7994 58.9383C50.9935 56.8486 52.0085 55.0575 52.5458 54.2217C52.6652 54.0227 52.8443 53.7839 53.0831 53.5053C53.1229 53.4257 53.1826 53.3859 53.2622 53.3859C58.0385 53.147 63.7104 53.0873 65.382 54.759C65.7005 55.1172 65.8597 55.5153 65.8597 55.9531C65.6806 58.5203 57.143 59.1771 50.0382 59.3562ZM53.4414 53.9232C53.2423 54.162 53.103 54.361 53.0234 54.5202C52.5458 55.2964 51.5905 56.9084 50.5159 58.7592C59.6505 58.5801 65.2029 57.5054 65.2626 55.9531C65.3024 55.6347 65.2029 55.3561 64.9641 55.1173C63.2924 53.4456 56.0086 53.8038 53.4414 53.9232Z" fill="#302F34"/>
<path fill-rule="evenodd" clip-rule="evenodd" d="M54.0385 53.1471C53.9191 53.1471 53.7997 53.0874 53.74 52.968C53.74 52.8486 53.74 52.7292 53.7997 52.6695C54.4564 51.9531 55.352 51.1172 56.2475 50.2814C57.0237 49.4455 57.9192 48.6097 58.7551 47.7738C58.8347 47.6942 58.9143 47.6743 58.9939 47.7141C63.4717 48.0723 65.6807 48.8485 66.1583 50.2217C66.3175 50.7391 66.2578 51.1968 65.9792 51.5948C64.9045 53.0874 60.7253 53.0874 56.964 53.1471H56.8446C55.8097 53.1471 54.8744 53.1471 54.0385 53.1471ZM59.0536 48.2514C58.2177 49.0873 57.3819 49.9231 56.6058 50.6396C55.949 51.356 55.2326 52.0128 54.6952 52.6098C55.3719 52.6098 56.0883 52.5899 56.8446 52.5501H56.964C60.3671 52.5501 64.6657 52.5501 65.5016 51.2963C65.7006 51.0575 65.7404 50.759 65.621 50.4008C65.0836 48.7888 60.6656 48.3709 59.0536 48.2514Z" fill="#302F34"/>
<path d="M52.486 45.2666C52.4064 45.2666 52.3467 45.2467 52.3069 45.2069C52.1875 45.0875 52.1875 44.9084 52.2472 44.789C54.9339 41.6844 57.5608 39.8336 57.6205 39.7739C57.74 39.7142 57.919 39.7142 57.9788 39.8933C58.0982 40.0127 58.0385 40.1918 57.9191 40.2515C57.9191 40.2515 55.2921 42.1023 52.6652 45.1472C52.6254 45.2268 52.5656 45.2666 52.486 45.2666Z" fill="#302F34"/>
<path d="M34.9926 87.5967C29.2014 87.4176 24.9625 85.3877 22.3952 83.7757C19.6489 81.9846 18.2757 80.2532 18.216 80.1338C18.0966 80.0144 18.1563 79.8949 18.2757 79.7755C18.3951 79.6561 18.5742 79.7158 18.6339 79.8352C18.6936 79.8949 24.1863 86.7011 35.0524 87.0594C35.1718 87.0594 35.2912 87.1788 35.2912 87.3579C35.2912 87.4773 35.1717 87.5967 34.9926 87.5967Z" fill="#302F34"/>
<path d="M36.0086 79.6556C35.9688 79.6556 35.929 79.6357 35.8892 79.5959C35.7698 79.5362 35.7101 79.4168 35.7698 79.2377C35.7698 79.178 36.9041 76.7898 38.5161 75.4763C40.0684 74.2823 42.5163 70.9389 42.5163 70.9389C42.6357 70.8195 42.8148 70.7598 42.9342 70.8792C43.0536 70.9389 43.0536 71.118 42.9939 71.2374C42.8745 71.4165 40.4863 74.6405 38.8743 75.954C37.3221 77.148 36.2474 79.4765 36.2474 79.4765C36.1877 79.5959 36.128 79.6556 36.0086 79.6556Z" fill="#302F34"/>
<path d="M43.1129 54.1623C42.9935 54.1623 42.8741 54.1026 42.8741 53.9832C42.5159 52.4906 43.4114 50.1024 43.4711 49.983C43.5308 49.8636 43.7099 49.8039 43.8293 49.8636C43.9487 49.9233 44.0682 50.0427 44.0085 50.2219C43.9488 50.2219 43.0532 52.5503 43.4114 53.8041C43.4114 53.9832 43.3517 54.1026 43.1726 54.1623C43.1726 54.1623 43.1527 54.1623 43.1129 54.1623Z" fill="#302F34"/>
<path d="M32.2467 85.4471C32.2069 85.4471 32.187 85.4471 32.187 85.4471C27.5898 85.0292 24.9032 82.7604 24.7837 82.641C24.6643 82.5216 24.6643 82.3425 24.724 82.2231C24.8434 82.1037 25.0225 82.1037 25.142 82.2231C25.142 82.2231 27.8286 84.4918 32.2467 84.9098C32.4258 84.9098 32.4855 85.0292 32.4855 85.2083C32.4855 85.3277 32.3661 85.4471 32.2467 85.4471Z" fill="#302F34"/>
<path d="M41.7395 55.237C41.6599 55.237 41.6002 55.1972 41.5604 55.1176C40.7842 54.2818 41.0231 52.5504 41.0828 52.4907C41.0828 52.3115 41.2619 52.2518 41.3813 52.2518C41.5604 52.3115 41.6201 52.4309 41.6201 52.5503C41.5604 52.9683 41.441 54.222 41.9783 54.7594C42.038 54.8788 42.038 55.0579 41.9186 55.1176C41.8788 55.1972 41.8191 55.237 41.7395 55.237Z" fill="#302F34"/>
</svg>
