<svg width="127" height="126" viewBox="0 0 127 126" fill="none" xmlns="http://www.w3.org/2000/svg">
<path d="M85.5692 67.4879V68.0866C85.5692 68.0067 85.5293 67.9269 85.4495 67.8471V67.2484C85.5293 67.3282 85.5692 67.4081 85.5692 67.4879Z" fill="#302F34"/>
<path fill-rule="evenodd" clip-rule="evenodd" d="M82.2171 71.0197C82.0973 71.0197 81.9776 70.9 81.9776 70.7802C81.9177 70.6006 82.0375 70.4809 82.1572 70.4809C82.2171 70.4809 84.6716 70.2414 90.2992 66.5895C93.532 64.554 96.5852 61.1416 98.8602 58.6272C100.836 56.4121 101.674 55.5141 102.213 55.6338C102.372 55.6338 102.492 55.7136 102.572 55.8733C103.231 57.0706 101.255 58.6272 100.896 58.9265C100.417 59.585 92.3945 70.6007 82.2171 71.0197ZM102.153 56.1127C101.734 56.2325 100.477 57.6693 99.2793 58.9864C97.0043 61.5008 93.8912 64.9731 90.5985 67.0685C88.2038 68.5652 86.4078 69.523 85.0907 70.0618C93.8912 67.9665 100.417 58.687 100.477 58.5673C100.517 58.5274 100.536 58.5074 100.536 58.5074C101.075 58.0884 102.452 56.891 102.153 56.1127Z" fill="#302F34"/>
<path fill-rule="evenodd" clip-rule="evenodd" d="M89.8798 71.0196C79.7023 70.6005 71.6801 59.5849 71.1413 58.9264C70.7821 58.627 68.8663 57.0705 69.5249 55.8731C69.5648 55.7135 69.6646 55.6337 69.8242 55.6337C70.363 55.5738 71.2011 56.4718 73.1768 58.627C75.4517 61.1415 78.5648 64.5539 81.7378 66.5894C87.4252 70.2413 89.8798 70.4808 89.8798 70.4808C89.9995 70.4808 90.1192 70.6005 90.1192 70.7801C90.1192 70.8998 89.9995 71.0196 89.8798 71.0196ZM69.9439 56.1126C69.6446 56.8909 71.0215 58.1481 71.5005 58.5073C71.5404 58.5073 71.5603 58.5272 71.5603 58.5672C71.6202 58.6869 78.2056 67.9663 86.9463 70.0617C85.6292 69.5229 83.8332 68.565 81.4385 67.0683C78.2056 64.973 75.0925 61.5007 72.8176 58.9862C71.6202 57.6692 70.363 56.2323 69.9439 56.1126Z" fill="#302F34"/>
<path fill-rule="evenodd" clip-rule="evenodd" d="M86.4076 83.4123C85.2701 83.4123 84.3721 82.5143 84.3721 81.4367C84.3721 80.2993 85.2701 79.4012 86.4076 79.4012C87.4852 79.4012 88.3832 80.2993 88.3832 81.4367C88.3832 82.5143 87.4852 83.4123 86.4076 83.4123ZM86.4076 79.94C85.5694 79.94 84.9109 80.5986 84.9109 81.4367C84.9109 82.215 85.5694 82.8735 86.4076 82.8735C87.1859 82.8735 87.8444 82.215 87.8444 81.4367C87.8444 80.5986 87.1859 79.94 86.4076 79.94Z" fill="#302F34"/>
<path fill-rule="evenodd" clip-rule="evenodd" d="M83.0549 98.4988C82.9751 98.4988 82.8953 98.4589 82.8154 98.3791C81.2589 96.1041 80.1214 85.1484 81.0194 80.5985C81.1791 79.7603 81.3986 79.1617 81.6779 78.8024C83.4141 76.6472 85.7489 77.0663 86.4075 77.2459C86.5871 77.0064 87.066 76.5275 87.7245 75.7492C90.1192 72.8756 96.1659 65.5717 100.476 58.5673C100.516 58.5673 100.536 58.5473 100.536 58.5074C101.075 58.0883 102.512 56.8311 102.093 56.1127C102.093 56.1127 102.093 56.0927 102.093 56.0528C102.053 55.973 102.053 55.8932 102.093 55.8134C104.368 51.8022 105.505 48.6293 105.505 46.474C105.505 41.2057 104.008 37.0749 102.691 34.5604C102.512 34.1414 102.572 33.6624 102.991 33.3631C103.35 33.0039 103.829 33.0039 104.248 33.3032C107.601 35.8775 112.869 41.086 110.474 47.1326C108.499 51.9818 102.452 61.0218 97.0639 68.9842C94.8488 72.217 92.7534 75.3301 91.1969 77.7847C89.7002 80.1794 88.7423 81.7958 88.443 82.6938C87.4252 85.6273 86.3476 86.5852 85.4496 87.124C85.2899 87.2437 85.1303 87.3435 84.9707 87.4233C84.6114 87.6029 84.3121 87.7826 84.0726 88.0819C83.9529 88.2415 83.913 88.4012 83.9529 88.5608C84.0726 89.1595 85.2101 89.8779 85.6292 90.0575C85.7489 90.1174 85.8088 90.2371 85.7489 90.3568L83.2944 98.3192C83.2944 98.4389 83.1746 98.4988 83.1148 98.4988C83.0749 98.4988 83.0549 98.4988 83.0549 98.4988ZM85.1502 77.6051C84.2522 77.6051 83.0549 77.9044 82.097 79.1018C81.8576 79.4211 81.658 79.9599 81.4984 80.7182C80.6602 85.0286 81.7378 94.6673 82.995 97.6008L85.2101 90.4167C84.7312 90.1772 83.5937 89.4588 83.4141 88.6806C83.3742 88.3214 83.474 88.0021 83.7135 87.7227C84.0128 87.3635 84.372 87.1839 84.7312 87.0043C84.8509 86.9244 84.9906 86.8247 85.1502 86.7049C85.9884 86.1661 86.9463 85.2681 87.964 82.5142C88.3232 81.5563 89.1614 79.9998 90.7778 77.4854C92.3343 75.0308 94.4297 71.9776 96.6448 68.6849C101.973 60.7824 108.079 51.7424 109.995 46.953C112.27 41.2057 107.181 36.1769 103.889 33.7223C103.709 33.5427 103.47 33.6026 103.29 33.7223C103.17 33.842 103.051 34.0815 103.17 34.321C104.487 36.8953 106.044 41.086 106.044 46.474C106.044 48.6891 104.906 51.922 102.632 55.993C103.051 57.1903 101.255 58.6271 100.895 58.8666C96.525 65.8711 90.5383 73.2348 88.1436 76.0485C87.2456 77.1262 86.7068 77.7248 86.7068 77.7248C86.647 77.7847 86.5272 77.8446 86.4075 77.7847C86.3476 77.7847 85.8687 77.6051 85.1502 77.6051Z" fill="#302F34"/>
<path fill-rule="evenodd" clip-rule="evenodd" d="M81.8576 79.2215C81.7777 79.2215 81.7179 79.1816 81.678 79.1018C80.0017 76.4676 77.607 72.8157 74.9728 68.9842C69.6446 61.0218 63.5381 51.9818 61.6224 47.1326C59.1678 41.086 64.4362 35.8775 67.8486 33.3032C68.2078 33.0039 68.6867 33.0039 69.1058 33.3631C69.465 33.6624 69.5848 34.1414 69.3453 34.5604C68.0881 37.0749 66.5315 41.2057 66.5315 46.474C66.5315 48.6293 67.669 51.8022 69.944 55.8732C69.9839 55.953 69.9839 56.0329 69.944 56.1127C69.5848 56.7712 70.7821 57.9686 71.5005 58.5074C71.5005 58.5074 71.5204 58.5273 71.5604 58.5673C76.709 66.8888 84.1325 75.5696 85.5693 77.186C85.6292 77.2459 85.6292 77.3656 85.6292 77.4854C85.5693 77.5452 85.4496 77.6051 85.3897 77.6051C84.4319 77.6051 83.1747 77.7847 82.097 79.1018C82.0571 79.1816 81.9973 79.2215 81.9174 79.2215C81.8775 79.2215 81.8576 79.2215 81.8576 79.2215ZM68.4473 33.6026C68.3276 33.6026 68.2278 33.6425 68.1479 33.7223C64.9151 36.1769 59.7665 41.2057 62.1013 46.953C64.0171 51.7424 70.0637 60.7824 75.3919 68.6849C77.9063 72.3966 80.301 75.8689 81.9174 78.5031C82.8753 77.4854 83.9529 77.186 84.7911 77.1261C82.7556 74.7315 75.9906 66.6494 71.1413 58.8666C70.5426 58.4475 69.0459 57.0706 69.4052 55.993C67.1302 51.922 65.9927 48.6891 65.9927 46.474C65.9927 41.086 67.5492 36.8953 68.8663 34.321C68.9861 34.0815 68.9262 33.842 68.7466 33.7223C68.6868 33.6624 68.567 33.6026 68.4473 33.6026Z" fill="#302F34"/>
<path d="M86.5273 77.845C86.4874 77.845 86.4475 77.825 86.4076 77.7851C86.4076 77.7851 86.228 77.7253 85.9885 77.6654C85.8688 77.6654 85.749 77.5457 85.749 77.4259C85.749 77.3062 85.8688 77.1865 85.9885 77.1865C86.1881 77.1465 86.4076 77.1266 86.647 77.1266C86.7668 77.1266 86.8466 77.1665 86.8865 77.2463C86.9464 77.3661 86.9464 77.4259 86.8865 77.5457L86.7069 77.7253C86.667 77.8051 86.6071 77.845 86.5273 77.845Z" fill="#302F34"/>
<path fill-rule="evenodd" clip-rule="evenodd" d="M88.9819 98.4991C88.8621 98.4991 88.8023 98.4392 88.7424 98.3195L86.2878 90.3571C86.228 90.2374 86.2879 90.1177 86.4076 90.0578C86.8267 89.8782 87.9641 89.1598 88.1437 88.5611C88.1437 88.4015 88.0839 88.2418 87.9641 88.0822C87.7247 87.7828 87.4253 87.6032 87.0661 87.4236C86.7069 87.244 86.2878 87.0046 85.8688 86.5855C85.7889 86.5057 85.749 86.4458 85.749 86.4059C85.749 86.326 85.7889 86.2462 85.8688 86.1664C86.647 85.448 87.3056 84.2506 87.9641 82.5145C88.2635 81.7362 88.8621 80.5389 89.9397 78.8027C89.9797 78.7229 90.0595 78.683 90.1792 78.683C90.259 78.683 90.3189 78.7229 90.3588 78.8027C92.4542 81.3172 90.8377 95.9847 89.2213 98.3794C89.1814 98.4592 89.1016 98.4991 88.9819 98.4991ZM86.8266 90.417L89.0417 97.6011C90.5384 94.2485 91.5562 82.275 90.1792 79.4613C89.2812 80.9579 88.6825 82.0356 88.4431 82.6941C87.8444 84.3704 87.1859 85.5677 86.4076 86.346C86.7069 86.6453 87.0063 86.8249 87.3056 86.9447C87.6648 87.1841 88.024 87.3638 88.3233 87.723C88.6027 88.0023 88.7025 88.3216 88.6227 88.6808C88.443 89.4591 87.3056 90.1775 86.8266 90.417Z" fill="#302F34"/>
<path d="M48.0328 40.2479C48.0328 40.2479 48.0128 40.2479 47.9729 40.2479C47.8532 40.2479 47.7335 40.1282 47.7933 39.9486C47.9729 38.1525 47.913 36.2966 47.8532 34.6204V34.4408C47.7933 31.8066 47.2545 30.1303 46.8953 29.2922C46.4164 31.4474 46.4163 35.7578 46.4163 35.8177C46.3565 36.117 45.6381 36.7157 45.0993 37.1348C44.9796 37.1947 44.7999 37.1947 44.7401 37.0749C44.6203 36.9552 44.6802 36.7756 44.8 36.7157C45.5782 36.117 45.8177 35.8177 45.8776 35.7578C45.8776 35.0993 45.9374 30.1902 46.5361 28.454C46.596 28.3343 46.6558 28.2744 46.7756 28.2744C46.8953 28.2744 46.9551 28.3343 47.015 28.3941C47.0749 28.454 48.2723 30.3698 48.392 34.4408V34.6204C48.4519 36.2966 48.4519 38.1525 48.2723 40.0084C48.2723 40.1282 48.1525 40.2479 48.0328 40.2479Z" fill="#302F34"/>
<path d="M29.8928 107C29.0547 107 27.6179 105.803 26.9593 105.024C25.283 103.049 22.9482 95.1461 25.9416 83.0529C28.2764 73.8932 34.0237 60.0638 37.0769 52.5804C38.0947 50.2456 38.8131 48.5693 38.9328 48.0903C39.0525 47.6713 39.1723 47.1325 39.3519 46.4739C39.8308 44.4983 40.4894 41.5648 41.567 39.5892C41.6269 39.4694 41.8064 39.4694 41.9262 39.5293C42.0459 39.5892 42.1058 39.7688 42.0459 39.8885C41.0282 41.7444 40.3098 44.6779 39.8308 46.5937C39.7111 47.2522 39.5315 47.8509 39.4118 48.2101C39.292 48.7489 38.5736 50.3653 37.5559 52.8199C34.5026 60.2434 28.7554 74.0728 26.4804 83.1726C23.487 95.0862 25.762 102.809 27.3186 104.665C28.3363 105.862 29.7132 106.641 29.9527 106.461C29.8928 106.461 30.1323 106.102 28.8152 104.066C27.0791 101.492 27.4981 95.2659 28.1567 90.4765C28.935 84.9088 30.4915 78.4431 32.1079 74.0129C33.3652 70.4808 34.6224 67.188 35.7 64.3144C38.0348 58.0882 39.8907 53.2389 39.8308 51.8021C39.771 49.7068 40.7887 49.0482 43.4229 47.2522C43.7422 47.0127 44.1014 46.7733 44.5005 46.5338C44.6202 46.4739 44.74 46.4739 44.8597 46.5937C44.9196 46.7134 44.9196 46.893 44.7998 46.9529C44.4007 47.2322 44.0415 47.4717 43.7222 47.6713C41.088 49.4673 40.3098 49.9462 40.3696 51.7423C40.3696 53.2988 38.6335 57.9685 36.1789 64.494C35.1013 67.3676 33.8441 70.6603 32.5869 74.1327C29.354 83.1726 26.4804 99.6362 29.2343 103.827C30.4317 105.563 30.731 106.521 30.252 106.88C30.1323 106.96 30.0126 107 29.8928 107Z" fill="#302F34"/>
<path fill-rule="evenodd" clip-rule="evenodd" d="M55.7551 76.3483C55.5755 76.3483 55.3959 76.2884 55.2762 76.0489C55.1963 75.9292 55.1165 75.7097 55.0367 75.3904C54.7373 74.4924 54.1985 72.9957 52.9413 71.1398C51.9834 69.6431 47.4934 65.2129 43.9612 61.6808C41.1474 58.867 39.4113 57.1308 39.1718 56.7118C38.633 55.8137 38.9324 54.6763 39.4113 54.3769C39.6508 54.1973 39.9501 54.1973 40.1297 54.4368C40.3692 54.6763 40.2494 54.8559 40.2494 54.9756C40.1896 55.0953 40.0698 55.3348 40.1896 55.8736C40.3093 56.2927 42.7638 58.6874 45.2184 61.0222C49.4091 65.0932 54.6775 70.1819 55.5156 72.3371C56.5932 74.9114 56.4136 76.1088 55.9347 76.3483C55.8549 76.3483 55.795 76.3483 55.7551 76.3483ZM39.7106 54.7361C39.7106 54.7361 39.5909 54.796 39.531 55.0355C39.3514 55.3947 39.2916 55.9335 39.5909 56.4124C39.8304 56.8315 41.9856 58.9867 44.3204 61.2617C47.9124 64.8537 52.3426 69.3438 53.4203 70.8405C54.6775 72.8161 55.2163 74.3128 55.5156 75.2108C55.5755 75.4503 55.6952 75.6897 55.7551 75.8095C55.815 75.57 55.9347 74.672 55.0367 72.5168C54.2584 70.4813 48.8105 65.2728 44.8592 61.4413C41.1474 57.8492 39.7106 56.4723 39.6508 55.9933C39.531 55.2749 39.6508 54.9756 39.7106 54.796C39.7506 54.796 39.7705 54.796 39.7705 54.796C39.7306 54.7561 39.7106 54.7361 39.7106 54.7361ZM39.7705 54.7361C39.7705 54.776 39.7705 54.796 39.7705 54.796L39.9501 54.6164L39.7705 54.7361Z" fill="#302F34"/>
<path fill-rule="evenodd" clip-rule="evenodd" d="M55.1567 75.5697C55.1168 75.5697 55.057 75.5697 54.9771 75.5697C54.6179 75.3303 54.1989 74.2527 54.0791 73.8935C53.9594 73.4744 53.8397 73.0553 53.7798 72.6961C53.7798 72.5165 53.7199 71.9777 54.0192 71.858C54.4982 71.7382 54.9173 72.6961 55.2166 73.5343C55.3363 73.9533 55.4561 74.4323 55.5159 74.7316C55.5159 74.9711 55.6357 75.45 55.2765 75.5697C55.2366 75.5697 55.1966 75.5697 55.1567 75.5697ZM54.3186 72.756C54.3585 72.9955 54.4383 73.3347 54.5581 73.7737C54.7177 74.1728 54.8574 74.4921 54.9771 74.7316C54.9372 74.4522 54.8574 74.113 54.7377 73.7139C54.578 73.3147 54.4383 72.9955 54.3186 72.756Z" fill="#302F34"/>
<path fill-rule="evenodd" clip-rule="evenodd" d="M57.1325 105.923C56.9729 105.923 56.8332 105.883 56.7135 105.803C56.2944 105.444 56.5937 104.486 57.851 102.75C60.9641 98.4993 58.749 82.8739 55.7556 74.8517C52.403 65.5722 48.811 54.4968 48.9906 52.1021C49.1103 50.3659 48.1524 49.6475 45.638 47.8515C45.2788 47.5721 44.8996 47.2728 44.5005 46.9535C41.0282 44.3792 41.3874 38.7516 41.6868 34.6807L41.7466 34.4412C41.9861 30.4301 43.3032 28.5742 43.3032 28.4545C43.363 28.3946 43.4828 28.3347 43.6025 28.3347C43.6624 28.3946 43.7821 28.4545 43.7821 28.5742C44.3209 30.2505 44.2012 35.0399 44.1413 35.8181C44.3209 35.9977 45.0393 36.7162 46.8353 38.0332C48.811 39.4102 49.6491 43.9002 50.2478 46.8337C50.3675 47.4923 50.4873 48.091 50.5471 48.51C50.6669 48.989 51.3254 50.7251 52.2234 53.1198C54.9773 60.6631 60.1259 74.7319 62.0417 83.9515C64.9153 97.9605 60.964 103.169 60.1259 104.067C59.4075 104.785 57.9707 105.923 57.1325 105.923ZM43.4229 29.3525C43.0637 30.1906 42.4051 31.8669 42.2255 34.5011V34.6807C41.9262 38.6918 41.567 44.1397 44.7999 46.5344C45.199 46.8537 45.5981 47.153 45.9972 47.4324C48.5116 49.2883 49.6491 50.1264 49.5294 52.1619C49.3498 54.1376 52.1635 63.3571 56.2944 74.6721C59.3476 82.9936 61.5029 98.5592 58.27 103.049C56.8332 105.025 57.0727 105.384 57.0727 105.384C57.3122 105.564 58.6891 104.845 59.7068 103.708C60.2456 103.169 64.3765 98.0802 61.5028 84.0713C59.647 74.8517 54.4984 60.8427 51.6846 53.2994C50.7866 50.785 50.1879 49.1087 50.0682 48.6298C49.9485 48.2107 49.8287 47.612 49.709 46.9535C49.1702 44.2594 48.332 39.7095 46.536 38.4523C44.261 36.8359 43.7222 36.1175 43.6624 36.0576C43.6624 36.0177 43.6624 35.9578 43.6624 35.878C43.6624 35.878 43.7821 31.5077 43.4229 29.3525Z" fill="#302F34"/>
<path fill-rule="evenodd" clip-rule="evenodd" d="M44.7997 43.0622C44.2609 43.0622 43.7819 42.8227 43.4227 42.4635C43.0036 42.1043 42.824 41.6254 42.7642 41.0866C42.7642 39.9491 43.6023 39.0511 44.7398 38.9912C45.2786 38.9912 45.7575 39.1708 46.1766 39.5899C46.5358 39.9491 46.7753 40.428 46.7753 40.9668C46.8351 42.1043 45.9371 43.0023 44.8595 43.0622C44.8196 43.0622 44.7997 43.0622 44.7997 43.0622ZM44.7997 39.53C44.7997 39.53 44.7797 39.53 44.7398 39.53C43.9016 39.53 43.303 40.2484 43.303 41.0866C43.303 41.8648 44.0214 42.5234 44.8595 42.5234C45.6378 42.4635 46.2964 41.805 46.2964 40.9668C46.2964 40.6076 46.1167 40.1886 45.8174 39.9491C45.518 39.7096 45.1589 39.53 44.7997 39.53Z" fill="#302F34"/>
</svg>
