<svg width="127" height="126" viewBox="0 0 127 126" fill="none" xmlns="http://www.w3.org/2000/svg">
<path d="M64.6379 77.8386C64.5549 77.8386 64.4927 77.8178 64.4512 77.7764C64.3268 77.652 64.3268 77.4653 64.4512 77.3409C81.6203 59.5497 107.498 58.3678 107.747 58.3678C107.872 58.3678 107.996 58.4922 107.996 58.6166C108.058 58.8033 107.934 58.9277 107.747 58.9277C107.498 58.9277 81.8692 60.1096 64.8245 77.7764C64.783 77.8178 64.7208 77.8386 64.6379 77.8386Z" fill="#302F34"/>
<path d="M107.747 58.9279C107.705 58.9279 107.664 58.9279 107.622 58.9279L84.6678 51.2142C81.3087 50.0323 77.7629 49.348 74.2171 49.037C74.0927 48.9748 73.9683 48.8504 73.9683 48.726C73.9683 48.5393 74.1549 48.4149 74.2793 48.4149C77.8873 48.726 81.4331 49.4724 84.8545 50.6544L107.809 58.368C107.995 58.4302 108.058 58.5547 107.995 58.7413C107.995 58.8657 107.871 58.9279 107.747 58.9279Z" fill="#302F34"/>
<path fill-rule="evenodd" clip-rule="evenodd" d="M58.9767 80.3894C58.9353 80.3894 58.8731 80.3894 58.7901 80.3894C58.7279 80.265 58.6657 80.2028 58.7279 80.0784C58.7279 79.9539 60.5941 69.6276 64.8242 59.0524C68.7432 49.1615 75.5238 37.0311 85.6635 35.1649C91.5731 34.1074 96.7364 35.1027 101.029 38.1509C107.374 42.692 110.671 50.9033 111.666 57.0618C111.666 57.1862 111.604 57.3106 111.479 57.3728L107.871 58.928C107.788 58.928 107.706 58.9073 107.623 58.8658C107.54 58.8243 107.477 58.7621 107.436 58.6792C107.436 58.4925 104.326 40.9502 93.8749 39.2706C84.0462 37.7154 76.1459 43.3141 71.0449 55.5066C65.1352 69.6898 64.9486 77.4657 64.9486 77.5279C64.9486 77.6523 64.8864 77.7767 64.762 77.8389L59.1011 80.3894C59.0597 80.3894 59.0182 80.3894 58.9767 80.3894ZM90.0802 35.3516C88.7117 35.3516 87.2809 35.476 85.7879 35.7248C68.059 39.0218 60.3453 74.7908 59.35 79.6429L64.3887 77.3413C64.4509 76.0971 65.073 68.3834 70.5472 55.2578C74.1552 46.611 81.1846 36.6579 93.9992 38.7107C104.077 40.3281 107.436 55.5688 107.934 58.2437L111.044 56.8752C110.049 50.9033 106.814 43.003 100.718 38.6485C97.6073 36.4091 94.0615 35.3516 90.0802 35.3516Z" fill="#302F34"/>
<path fill-rule="evenodd" clip-rule="evenodd" d="M49.5832 72.4881C49.2722 72.4881 49.0234 72.3637 48.8367 72.1771C48.6501 71.9905 48.5879 71.7417 48.5879 71.4306C48.5879 71.1818 48.7123 70.933 48.8989 70.7463C49.0855 70.5597 49.3344 70.4353 49.6454 70.4353C50.1431 70.4975 50.6407 70.9329 50.5785 71.4928C50.5785 72.0527 50.1431 72.4881 49.5832 72.4881ZM49.5832 71.0574C49.4588 71.0574 49.3551 71.0988 49.2722 71.1818C49.1892 71.2647 49.1478 71.3477 49.1478 71.4306C49.1478 71.555 49.1892 71.6587 49.2722 71.7417C49.3551 71.8661 49.4588 71.9283 49.5832 71.9283C49.8321 71.9283 50.0187 71.7416 50.0187 71.4928C50.0187 71.244 49.8321 71.0574 49.5832 71.0574Z" fill="#302F34"/>
<path fill-rule="evenodd" clip-rule="evenodd" d="M40.2519 71.9914C40.2519 71.9914 40.2311 71.9914 40.1896 71.9914C39.6298 71.9914 39.1943 71.5559 39.1943 70.996C39.2565 70.685 39.3187 70.4362 39.5054 70.2496C39.7542 70.0629 40.003 70.0007 40.2519 70.0007C40.8117 70.0007 41.2472 70.4984 41.2472 71.0583C41.2472 71.3071 41.1227 71.5559 40.9361 71.7425C40.7495 71.9292 40.5007 71.9914 40.2519 71.9914ZM40.2519 70.5606C40.1274 70.5606 40.0238 70.6021 39.9408 70.685C39.8579 70.768 39.8164 70.8716 39.8164 70.996C39.8164 71.2449 40.003 71.4315 40.2519 71.4315C40.3348 71.4315 40.4385 71.39 40.5629 71.3071C40.6458 71.2241 40.6873 71.1205 40.6873 70.996C40.6873 70.8716 40.6458 70.768 40.5629 70.685C40.48 70.6021 40.3763 70.5606 40.2519 70.5606Z" fill="#302F34"/>
<path fill-rule="evenodd" clip-rule="evenodd" d="M34.28 69.0051C33.7201 69.0051 33.2847 68.5697 33.2847 68.0098C33.2847 67.6988 33.4091 67.45 33.5957 67.2634C33.7823 67.0767 34.0311 67.0145 34.28 67.0145C34.591 67.0145 34.8398 67.1389 35.0265 67.3256C35.2131 67.5122 35.2753 67.761 35.2753 68.0098C35.2753 68.3209 35.2131 68.5697 34.9643 68.7563C34.7776 68.9429 34.5288 69.0051 34.28 69.0051ZM34.28 67.5744C34.1556 67.5744 34.0519 67.6159 33.9689 67.6988C33.886 67.7817 33.8445 67.8854 33.8445 68.0098C33.8445 68.1342 33.886 68.2379 33.9689 68.3209C34.0519 68.4038 34.1556 68.4453 34.28 68.4453C34.4044 68.4453 34.5081 68.4038 34.591 68.3209C34.6739 68.2379 34.7154 68.1342 34.7154 68.0098C34.7154 67.8854 34.6739 67.7817 34.591 67.6988C34.5081 67.6159 34.4044 67.5744 34.28 67.5744Z" fill="#302F34"/>
<path fill-rule="evenodd" clip-rule="evenodd" d="M51.6361 75.7859C51.5947 75.7859 51.5739 75.7859 51.5739 75.7859C51.3251 75.7859 51.0763 75.6615 50.8896 75.4748C50.703 75.2882 50.5786 75.0394 50.5786 74.7283C50.6408 74.1685 51.0763 73.733 51.6361 73.733C52.196 73.7952 52.6314 74.2307 52.6314 74.7906C52.6314 75.0394 52.507 75.2882 52.3204 75.4748C52.1338 75.6615 51.885 75.7859 51.6361 75.7859ZM51.6361 74.3551C51.5117 74.3551 51.408 74.3966 51.3251 74.4795C51.2422 74.5625 51.2007 74.6661 51.2007 74.7906C51.2007 74.8735 51.2422 74.9564 51.3251 75.0394C51.408 75.1638 51.491 75.226 51.5739 75.226C51.6984 75.226 51.802 75.1845 51.885 75.1016C51.9679 75.0187 52.0301 74.915 52.0716 74.7906C52.0716 74.6661 52.0301 74.5625 51.9472 74.4795C51.8642 74.3966 51.7606 74.3551 51.6361 74.3551Z" fill="#302F34"/>
<path fill-rule="evenodd" clip-rule="evenodd" d="M45.6637 74.2308C45.6222 74.2308 45.5808 74.2101 45.5393 74.1686C44.9794 74.1064 44.6062 73.6087 44.6684 73.0489C44.7306 72.8 44.855 72.5512 45.0416 72.3646C45.2905 72.2402 45.5393 72.178 45.7881 72.178C46.0991 72.2402 46.348 72.3646 46.4724 72.5512C46.659 72.8001 46.7212 73.0489 46.659 73.2977C46.659 73.6087 46.5346 73.8576 46.2858 73.982C46.1199 74.1479 45.9125 74.2308 45.6637 74.2308ZM45.6637 72.7378C45.5808 72.7378 45.4978 72.7793 45.4149 72.8623C45.3319 72.9452 45.2697 73.0281 45.2283 73.1111C45.2283 73.3599 45.4149 73.6087 45.6015 73.6087C45.7259 73.6502 45.8503 73.6295 45.9747 73.5465C46.0577 73.4636 46.0991 73.3599 46.0991 73.2355C46.1406 73.1111 46.1199 73.0074 46.0369 72.9245C45.954 72.8415 45.8503 72.7793 45.7259 72.7378C45.7259 72.7378 45.7052 72.7378 45.6637 72.7378Z" fill="#302F34"/>
<path fill-rule="evenodd" clip-rule="evenodd" d="M32.7248 64.8372C32.6833 64.8372 32.6419 64.8372 32.6004 64.8372C32.3516 64.775 32.1027 64.6506 31.9161 64.464C31.7917 64.2151 31.7295 63.9663 31.7295 63.6553C31.7917 63.4064 31.9161 63.1576 32.1027 63.0332C32.3515 62.8466 32.6004 62.7844 32.8492 62.8466C33.4091 62.9088 33.8445 63.4064 33.7201 63.9663C33.7201 64.2151 33.5957 64.464 33.3469 64.6506C33.181 64.775 32.9736 64.8372 32.7248 64.8372ZM32.7248 63.4064C32.6418 63.4064 32.5589 63.4272 32.476 63.4686C32.393 63.5516 32.3308 63.6553 32.2894 63.7797C32.2894 63.9041 32.3308 64.0078 32.4138 64.0907C32.4967 64.1737 32.5797 64.2359 32.6626 64.2773C32.787 64.2773 32.9114 64.2359 33.0358 64.1529C33.1188 64.07 33.1602 63.987 33.1602 63.9041C33.2225 63.6553 33.0358 63.4064 32.787 63.4064C32.787 63.4064 32.7663 63.4064 32.7248 63.4064Z" fill="#302F34"/>
<path fill-rule="evenodd" clip-rule="evenodd" d="M38.3236 67.8855C38.2821 67.8855 38.2199 67.8855 38.137 67.8855C37.8882 67.8233 37.6393 67.6989 37.5149 67.4501C37.3283 67.2634 37.2661 67.0146 37.2661 66.7036C37.3905 66.1437 37.8882 65.7705 38.448 65.8327C39.0079 65.9571 39.3811 66.4548 39.3189 67.0146C39.2567 67.2635 39.1323 67.5123 38.8835 67.6367C38.7176 67.8026 38.531 67.8855 38.3236 67.8855ZM38.3236 66.3926C38.0748 66.3926 37.8882 66.5792 37.8882 66.828C37.8467 66.9109 37.8674 67.0146 37.9504 67.139C38.0333 67.222 38.137 67.2634 38.2614 67.2634C38.3444 67.3049 38.448 67.2842 38.5724 67.2012C38.6554 67.1183 38.6969 67.0146 38.6969 66.8902C38.7591 66.7036 38.5725 66.4548 38.3858 66.4548C38.3444 66.4133 38.3236 66.3926 38.3236 66.3926Z" fill="#302F34"/>
<path fill-rule="evenodd" clip-rule="evenodd" d="M44.2956 70.685C44.2542 70.685 44.2127 70.6642 44.1712 70.6227C43.9224 70.6227 43.6736 70.4983 43.4869 70.2495C43.3625 70.0629 43.3003 69.7519 43.3003 69.503C43.3625 68.9432 43.9224 68.5699 44.42 68.6321C44.7311 68.6943 44.9799 68.8187 45.1043 69.0054C45.2909 69.2542 45.3531 69.503 45.2909 69.8141C45.2909 70.0629 45.1665 70.3117 44.9177 70.4361C44.7518 70.602 44.5445 70.685 44.2956 70.685ZM44.2956 69.192C44.109 69.192 43.9224 69.3786 43.8602 69.5652C43.8602 69.6896 43.9016 69.8141 43.9846 69.9385C44.0675 70.0214 44.1505 70.0629 44.2334 70.0629C44.3578 70.1044 44.4822 70.0836 44.6067 70.0007C44.6896 69.9177 44.7311 69.8141 44.7311 69.6896C44.7726 69.5652 44.7518 69.4615 44.6689 69.3786C44.5859 69.2957 44.4822 69.2335 44.3578 69.192C44.3578 69.192 44.3371 69.192 44.2956 69.192Z" fill="#302F34"/>
<path fill-rule="evenodd" clip-rule="evenodd" d="M75.1505 38.2129C75.109 38.2129 75.0883 38.2129 75.0883 38.2129L68.1211 36.16C67.9967 36.0978 67.9345 36.0356 67.9345 35.9112C67.8723 35.7868 67.9344 35.6624 67.9967 35.6002C75.026 30.8725 83.424 31.1213 83.4862 31.1213C88.1517 31.8056 91.5109 33.2985 92.1329 33.5474C92.3196 33.6096 92.3818 33.734 92.3196 33.9206C92.2574 34.045 92.133 34.1072 92.0086 34.1072C91.5109 34.0243 91.0132 33.9621 90.5156 33.9206C89.935 33.9206 89.3959 33.9206 88.8982 33.9206C88.442 33.9621 87.9858 34.0035 87.5296 34.045H87.4052C83.113 34.5427 78.7584 36.4089 76.5812 37.5286C75.7725 37.9018 75.2749 38.1507 75.2749 38.1507C75.2334 38.1921 75.1919 38.2129 75.1505 38.2129ZM68.8676 35.7868L75.0883 37.5908C75.2749 37.5286 75.7103 37.2798 76.3324 36.9687C76.3324 36.9687 76.3531 36.9687 76.3946 36.9687C78.5718 35.9112 82.9885 33.9828 87.4052 33.4851H87.4674C87.9651 33.4022 88.442 33.3607 88.8982 33.3607C89.2715 33.3193 89.6447 33.3193 90.0179 33.3607C88.5249 32.8009 86.2233 32.1166 83.4862 31.6811C83.424 31.6811 75.5859 31.4323 68.8676 35.7868Z" fill="#302F34"/>
<path fill-rule="evenodd" clip-rule="evenodd" d="M76.4565 37.5284C76.4151 37.5284 76.3943 37.5284 76.3943 37.5284L71.3556 35.9732C71.2311 35.911 71.1689 35.8488 71.1689 35.7244C71.1067 35.6 71.1689 35.5378 71.2933 35.4756C76.7053 31.681 83.2993 31.8676 83.3615 31.8676C85.7876 32.2408 87.716 32.9251 88.9601 33.3605C89.0845 33.4228 89.209 33.5472 89.1468 33.6716C89.1468 33.796 89.0223 33.9204 88.8979 33.9204C88.4417 33.9619 87.9855 34.0034 87.5293 34.0448H87.4049C83.1127 34.5425 78.7582 36.4087 76.5809 37.5284C76.5394 37.5284 76.498 37.5284 76.4565 37.5284ZM72.102 35.6L76.4565 36.9686C78.696 35.8488 82.9882 33.9826 87.4049 33.485H87.4671C86.3474 33.1117 84.9167 32.7385 83.2993 32.4274C83.2993 32.4274 83.2371 32.4274 83.1126 32.4274C82.0551 32.4274 76.7054 32.6141 72.102 35.6Z" fill="#302F34"/>
<path d="M81.8068 82.0067C81.2676 82.0067 80.77 82.0689 80.3138 82.1933H80.0649C80.5626 82.0689 81.1225 82.0067 81.6824 82.0067C82.0971 81.9652 82.5118 81.9652 82.9265 82.0067C82.5533 81.9652 82.18 81.9652 81.8068 82.0067Z" fill="#302F34"/>
<path d="M81.6818 82.0065C81.1219 82.0065 80.562 82.0687 80.0643 82.1931H79.9399C80.4376 82.0687 80.9974 82.0065 81.5573 82.0065C81.6402 82.0065 81.7025 82.0065 81.744 82.0065C81.744 82.0065 81.7232 82.0065 81.6818 82.0065Z" fill="#302F34"/>
<path d="M80.7488 82.0686C80.4585 82.1101 80.1889 82.1516 79.9401 82.193H79.8779C80.1682 82.1516 80.4585 82.1101 80.7488 82.0686Z" fill="#302F34"/>
<path d="M81.9308 82.0067C81.4747 82.0482 81.0392 82.1104 80.6245 82.1933H80.3135C80.7697 82.0689 81.2673 82.0067 81.8065 82.0067C82.1797 81.9652 82.553 81.9652 82.9262 82.0067C83.258 82.0482 83.569 82.0896 83.8593 82.1311C83.2995 82.0067 82.6151 82.0067 81.9308 82.0067Z" fill="#302F34"/>
<path d="M81.9931 82.0687C81.6613 82.0687 81.3088 82.0894 80.9355 82.1309L80.6245 82.1931C81.0392 82.1101 81.4747 82.0479 81.9308 82.0065C82.6151 82.0065 83.2995 82.0065 83.8593 82.1309C84.1911 82.2138 84.4813 82.2968 84.7302 82.3797C83.9837 82.1309 82.9884 82.0065 81.9931 82.0687Z" fill="#302F34"/>
<path d="M28.6193 88.0402C28.6193 88.0402 28.6193 88.0195 28.6193 87.978C28.6193 87.6877 28.5986 87.3767 28.5571 87.0449C28.5986 87.0864 28.6193 87.1071 28.6193 87.1071V88.1024C28.6193 88.1024 28.6193 88.0817 28.6193 88.0402Z" fill="#302F34"/>
<path fill-rule="evenodd" clip-rule="evenodd" d="M30.9211 88.6627C29.8014 88.6627 28.7439 88.4138 28.1218 88.0406C28.0389 87.9991 27.9767 87.9369 27.9352 87.854C27.9352 87.771 27.9766 87.6881 28.0596 87.6052C28.184 87.4807 28.3084 87.2941 28.3084 87.1075C28.2462 86.9831 28.1218 86.7965 27.873 86.672C27.79 86.5891 27.7485 86.5061 27.7485 86.4232C27.7485 86.3403 27.7693 86.2573 27.8108 86.1744C28.495 85.6145 29.677 85.2413 31.1077 85.1791L82.0552 81.7577C83.4238 81.6955 84.7302 81.9443 85.4144 82.442C85.7877 82.6493 86.0157 82.9189 86.0987 83.2507C86.0987 83.5617 86.0365 83.9349 85.4144 84.3704C84.7302 84.868 83.6104 85.1791 82.3663 85.2413L31.4188 88.6627C31.2529 88.6627 31.087 88.6627 30.9211 88.6627ZM28.6816 87.7296C29.3659 87.9784 30.3613 88.1028 31.3566 88.0406H31.5432L82.3041 84.6814C83.486 84.6192 84.5435 84.3082 85.1034 83.9349C85.29 83.8105 85.5388 83.5617 85.4766 83.3129C85.4766 83.1262 85.29 83.0018 85.1656 82.8774C84.4813 82.5042 83.2994 82.3175 82.0552 82.3798L79.9402 82.5042L31.1699 85.7389C30.0502 85.8012 29.1171 86.05 28.495 86.4232C28.7024 86.5891 28.8268 86.7964 28.8683 87.0453C28.8683 87.2319 28.8683 87.4807 28.6816 87.7296ZM81.371 84.4326C80.7489 84.4326 80.2512 84.3082 80.0024 84.0594C79.8158 83.9349 79.8158 83.7483 79.8158 83.6861C79.7536 83.064 80.6867 82.753 81.4954 82.753C82.1796 82.6908 82.7395 82.8152 83.0505 83.1262C83.1749 83.2507 83.2372 83.3751 83.2372 83.4995C83.2372 84.0594 82.3662 84.3704 81.5575 84.4326C81.4746 84.4326 81.4124 84.4326 81.371 84.4326ZM80.3756 83.6861C80.4378 83.6861 80.8111 83.8727 81.4954 83.8727C82.2418 83.8105 82.6151 83.5617 82.6773 83.4995C82.6151 83.4373 82.2418 83.2507 81.4954 83.3129C80.8111 83.3129 80.4378 83.5617 80.3756 83.6861Z" fill="#302F34"/>
<path d="M85.0415 84.3704L85.1038 85.3657C85.1038 85.3657 85.1038 85.3864 85.1038 85.4279L85.0415 84.4326C85.0415 84.4326 85.0415 84.4118 85.0415 84.3704Z" fill="#302F34"/>
<path d="M85.0409 84.3704C85.0409 84.4118 85.0409 84.4326 85.0409 84.4326L84.9165 84.4948C84.958 84.4533 84.9994 84.4118 85.0409 84.3704Z" fill="#302F34"/>
<path fill-rule="evenodd" clip-rule="evenodd" d="M16.5512 89.6576C16.178 89.6576 15.9914 89.3466 15.8048 89.0356C15.4937 88.5379 15.1827 87.9158 14.1874 87.9158C14.1874 87.9158 14.1666 87.9158 14.1252 87.9158C14.1874 87.9781 14.1252 88.0403 14.0629 88.1025L14.0008 88.1647C14.0008 88.2891 13.8141 88.3513 13.6897 88.3513C13.5653 88.2891 13.5031 88.2269 13.5031 88.0402C13.4409 86.8583 14.3118 86.2363 16.3024 86.0496L24.6381 85.552C26.0689 85.4276 27.3752 85.6764 28.1839 86.174C28.5986 86.4229 28.8268 86.7132 28.8682 87.0449C28.9304 87.2938 28.8682 87.667 28.4328 88.0402C27.7485 88.6001 26.4422 89.0356 25.0114 89.0978L16.6135 89.6576C16.6135 89.6576 16.5927 89.6576 16.5512 89.6576ZM14.2496 87.356C15.4937 87.356 15.9914 88.2269 16.3024 88.7245C16.4268 88.8489 16.5512 89.0978 16.5512 89.0978C16.5927 89.0978 16.6135 89.0978 16.6135 89.0978H16.7379L24.9492 88.5379C26.2555 88.4757 27.4996 88.1025 28.0595 87.6048C28.1839 87.4804 28.3084 87.2938 28.3084 87.1071C28.2461 86.9827 28.1217 86.7961 27.8729 86.6717C27.1886 86.2363 26.0067 86.0496 24.7004 86.1118H24.5137L16.3646 86.6717C15.0583 86.7339 14.4362 87.0449 14.2496 87.356Z" fill="#302F34"/>
<path d="M85.2275 84.1837L85.2897 85.179L85.4142 87.4807L85.3519 86.5476L85.2275 84.1837Z" fill="#302F34"/>
<path d="M31.0454 93.1413C31.0454 93.0998 31.0454 93.0791 31.0454 93.0791C31.0454 92.7473 31.0454 92.4363 31.0454 92.146C31.1284 92.2704 31.1906 92.4156 31.232 92.5815V93.5767C31.232 93.4109 31.1698 93.2657 31.0454 93.1413Z" fill="#302F34"/>
<path fill-rule="evenodd" clip-rule="evenodd" d="M33.2851 93.4526C32.4142 93.4526 31.6677 93.3282 31.0456 93.1415C30.9627 93.1001 30.9004 93.0586 30.859 93.0171C30.859 92.9342 30.859 92.8512 30.859 92.7683C30.9212 92.6439 30.9834 92.5195 30.7968 92.3328C30.6309 92.1255 30.3406 91.9596 29.9259 91.8352C29.8429 91.7937 29.7807 91.7315 29.7393 91.6486C29.7393 91.5656 29.7393 91.4827 29.7393 91.3997C30.0503 90.8399 31.1078 90.28 32.4764 90.0934L52.5692 86.672C52.6107 86.672 52.6314 86.672 52.6314 86.672L82.3042 84.6814C82.4286 84.6814 82.553 84.8058 82.6152 84.9302C82.6152 85.1168 82.4908 85.2413 82.3664 85.2413L34.8402 93.3282C34.467 93.3696 34.0938 93.4111 33.7205 93.4526C33.5546 93.4526 33.4095 93.4526 33.2851 93.4526ZM31.481 92.7061C32.1031 92.8305 32.9118 92.8927 33.7205 92.8927C34.0523 92.8513 34.4048 92.8098 34.778 92.7683L76.7055 85.6145L52.6936 87.2319L32.5386 90.6533C31.4811 90.8399 30.7968 91.1509 30.4857 91.462C30.8175 91.5864 31.0664 91.7523 31.2322 91.9596C31.4396 92.167 31.5225 92.4158 31.481 92.7061Z" fill="#302F34"/>
<path fill-rule="evenodd" clip-rule="evenodd" d="M19.7238 95.8783C18.8529 95.8783 18.3553 95.194 17.8576 94.6342C17.6088 94.2609 17.36 93.8877 16.9867 93.7011C16.9453 93.7425 16.9245 93.784 16.9245 93.8255C16.8623 94.0121 16.8001 94.1987 16.6135 94.1987C16.4891 94.1987 16.3647 94.1987 16.3025 94.1365C16.261 94.0536 16.2402 93.9706 16.2402 93.8877C16.2402 92.768 16.5513 92.7058 18.2931 92.3947L26.1312 91.0884C26.5044 91.0054 26.8776 90.964 27.2509 90.964C28.3084 90.9018 29.3659 91.0262 30.1124 91.275C30.6515 91.4409 31.0248 91.669 31.2321 91.9593C31.481 92.2703 31.5432 92.6436 31.4187 93.0168C31.1077 93.6389 30.0502 94.1987 28.5572 94.4476L20.7814 95.7539C20.4496 95.8368 20.1386 95.8783 19.8483 95.8783C19.8068 95.8783 19.7653 95.8783 19.7238 95.8783ZM17.2356 93.2034C17.7332 93.4523 18.0443 93.8877 18.3553 94.2609C18.7907 94.8208 19.164 95.3185 19.8483 95.3185C20.0971 95.277 20.3667 95.2355 20.657 95.194L28.495 93.8877C29.8636 93.6389 30.6722 93.1412 30.8589 92.768C30.9211 92.6436 30.9833 92.5191 30.7967 92.3325C30.6308 92.1252 30.3405 91.9593 29.9258 91.8349C29.2415 91.586 28.2462 91.5238 27.3131 91.5238C26.9399 91.5653 26.5666 91.6068 26.1933 91.6483L18.4175 92.9546C17.8576 93.079 17.4844 93.1412 17.2356 93.2034Z" fill="#302F34"/>
<path fill-rule="evenodd" clip-rule="evenodd" d="M26.3799 100.98C25.509 100.98 24.7625 100.295 24.0782 99.6732C23.8294 99.4244 23.5184 99.1756 23.2696 98.989C23.2696 98.989 23.0829 99.1134 22.9585 99.1756C22.8341 99.3 22.6475 99.4244 22.4608 99.3622C22.3364 99.3 22.2742 99.2378 22.2742 99.1134C22.212 98.4913 22.7097 98.0558 23.7672 97.7448L30.7344 95.8164C31.3565 95.6298 32.0407 95.5054 32.7872 95.5054C33.4715 95.4432 34.218 95.5054 34.84 95.6298C35.4206 95.7127 35.8976 95.8786 36.2708 96.1274C36.7684 96.4385 36.9551 96.7495 36.9551 96.9983C37.0795 97.7448 36.2708 98.3669 34.9022 98.8023L27.9351 100.731C27.4374 100.897 26.9398 100.98 26.4421 100.98C26.4421 100.98 26.4214 100.98 26.3799 100.98ZM23.4562 98.4913C23.4976 98.4913 23.5391 98.512 23.5806 98.5535C23.8916 98.6779 24.2027 98.9889 24.5137 99.2378C25.0736 99.7976 25.7578 100.42 26.4421 100.42C26.8568 100.378 27.2922 100.295 27.7484 100.171L34.7778 98.2425C35.9598 97.8692 36.4574 97.3716 36.3952 97.0605C36.3952 96.9361 36.2086 96.7495 35.9598 96.6251C35.7109 96.4385 35.2755 96.2518 34.7156 96.1896C34.1558 96.0652 33.4715 96.003 32.7872 96.0652C32.1029 96.0652 31.4809 96.1896 30.921 96.3763L23.8916 98.3047C23.7257 98.3461 23.5806 98.4084 23.4562 98.4913Z" fill="#302F34"/>
<path fill-rule="evenodd" clip-rule="evenodd" d="M37.3907 105.645C36.7064 105.645 36.0222 105.209 35.4001 104.774C34.9647 104.525 34.5914 104.276 34.2182 104.152C33.9693 104.09 33.8449 104.152 33.6583 104.276C33.5339 104.318 33.4095 104.38 33.2851 104.463C33.1607 104.463 33.057 104.442 32.974 104.401C32.8496 104.276 32.5386 104.028 32.5386 103.717C32.6008 103.405 32.9118 103.157 33.5339 102.846L39.1947 100.295C39.9412 99.9219 40.9365 99.7353 42.0562 99.6731C42.4295 99.6316 42.8027 99.6316 43.176 99.6731C43.7981 99.7353 44.3579 99.7975 44.8555 99.9841C45.3947 100.15 45.7679 100.378 45.9753 100.668C46.2241 100.917 46.307 101.187 46.2241 101.477C46.0997 101.913 45.7264 102.348 44.98 102.659L39.3191 105.209C38.7385 105.5 38.1165 105.645 37.4529 105.645C37.4115 105.645 37.3907 105.645 37.3907 105.645ZM34.0316 103.53C34.156 103.53 34.2804 103.551 34.4048 103.592C34.8402 103.779 35.2757 104.028 35.7112 104.339C36.271 104.712 36.8931 105.147 37.4529 105.085C38.0335 105.044 38.5726 104.919 39.0703 104.712L44.7934 102.161C45.291 101.913 45.6021 101.601 45.6643 101.353C45.7057 101.27 45.6643 101.166 45.5398 101.042C45.4154 100.917 45.1666 100.731 44.6689 100.544C44.2335 100.357 43.6736 100.295 43.1138 100.233C42.782 100.233 42.4295 100.233 42.0562 100.233C41.0609 100.295 40.1278 100.482 39.4436 100.793L33.7827 103.343C33.2851 103.592 33.1606 103.717 33.1606 103.779C33.1606 103.779 33.1607 103.779 33.2229 103.841C33.2643 103.799 33.3058 103.779 33.3473 103.779C33.5339 103.654 33.7205 103.53 34.0316 103.53Z" fill="#302F34"/>
<path fill-rule="evenodd" clip-rule="evenodd" d="M38.137 97.4335C37.5979 97.4335 37.1002 97.392 36.644 97.3091C36.5196 97.3091 36.3952 97.1847 36.3952 97.0603C36.3537 96.8944 36.2086 96.7492 35.9597 96.6248C35.7109 96.4382 35.2755 96.2516 34.7156 96.1894C34.5912 96.1272 34.529 96.0649 34.529 95.8783C34.4668 95.1941 35.2133 94.6342 36.5196 94.2609L48.1523 90.964L81.3086 85.0543C81.433 85.0543 81.6196 85.1165 81.6196 85.3031C81.6818 85.4276 81.5575 85.6142 81.4331 85.6142L40.5008 97.1225C39.941 97.3091 39.2567 97.4335 38.5724 97.4335C38.4066 97.4335 38.2614 97.4335 38.137 97.4335ZM36.8929 96.8114C37.3905 96.8736 37.9504 96.8736 38.5103 96.8736C39.1945 96.8114 39.8166 96.7492 40.3765 96.5626L75.5856 86.6717L48.2767 91.5238L36.644 94.8208C35.7109 95.0696 35.2755 95.3807 35.1511 95.6917C35.6072 95.7747 35.9805 95.9198 36.2708 96.1272C36.644 96.3138 36.8306 96.5626 36.8929 96.8114Z" fill="#302F34"/>
<path fill-rule="evenodd" clip-rule="evenodd" d="M46.2863 101.166C46.1204 101.166 45.9337 101.146 45.7264 101.104C45.6434 101.104 45.5812 101.083 45.5398 101.042C45.4154 100.917 45.1665 100.731 44.6689 100.544C44.2334 100.358 43.6735 100.295 43.1137 100.233C43.0307 100.233 42.9685 100.192 42.9271 100.109C42.7612 99.9429 42.6782 99.7562 42.6782 99.5489C42.6782 99.3001 42.8026 98.7402 43.9224 98.2425L56.2394 92.6439L82.2418 84.9303C82.2418 84.8888 82.2418 84.868 82.2418 84.868L82.9262 84.8059C83.0506 84.7436 83.175 84.8681 83.2372 84.9925C83.2994 85.1169 83.175 85.2413 83.0506 85.3035L49.4588 100.544C48.7745 100.855 47.7792 101.104 46.7217 101.104C46.5973 101.146 46.4521 101.166 46.2863 101.166ZM45.913 100.544C46.1618 100.544 46.4314 100.544 46.7217 100.544C47.6548 100.482 48.5879 100.295 49.2722 100.047L79.4426 86.2988L56.426 93.2038L44.109 98.7402C43.6114 98.989 43.2381 99.3001 43.2381 99.5489C43.2796 99.5904 43.3003 99.6318 43.3003 99.6733C43.8602 99.7355 44.42 99.8599 44.8555 99.9843C45.3117 100.15 45.6642 100.337 45.913 100.544Z" fill="#302F34"/>
<path fill-rule="evenodd" clip-rule="evenodd" d="M56.9239 103.779C56.4262 103.779 55.9493 103.737 55.4931 103.655C54.9125 103.572 54.4356 103.406 54.0624 103.157C53.5025 102.846 53.3781 102.473 53.3781 102.224C53.3159 101.975 53.4403 101.602 53.9379 101.228L63.7044 93.7636C63.7459 93.7636 63.7666 93.7636 63.7666 93.7636L64.6997 93.0172C64.6997 93.0172 64.7205 93.0172 64.7619 93.0172L82.8019 84.8058C82.8434 84.8058 82.8849 84.8058 82.9264 84.8058L84.0461 84.557C84.2327 84.557 84.3571 84.6192 84.4193 84.7436C84.4193 84.9303 84.3571 85.0547 84.2327 85.1169L83.6107 85.4279L60.7807 102.846C60.0964 103.344 58.7901 103.717 57.4215 103.779C57.2556 103.779 57.0898 103.779 56.9239 103.779ZM65.0108 93.5148L54.249 101.664C54.0624 101.851 53.9379 102.037 53.9379 102.162C53.9379 102.348 54.0624 102.535 54.3734 102.659C54.6844 102.846 55.1199 103.032 55.6175 103.095C56.1774 103.219 56.7995 103.219 57.3593 103.219C58.6657 103.157 59.8476 102.784 60.4074 102.348L82.3665 85.6145L65.0108 93.5148Z" fill="#302F34"/>
<path fill-rule="evenodd" clip-rule="evenodd" d="M70.4228 105.023C70.3814 105.023 70.3606 105.023 70.3606 105.023C69.863 104.898 69.3653 104.774 68.7433 104.774C68.453 104.733 68.1419 104.733 67.8101 104.774C67.5198 104.774 67.2295 104.795 66.9392 104.836C66.8978 104.836 66.8563 104.836 66.8148 104.836C65.944 104.525 65.4463 104.09 65.4463 103.592C65.4463 103.385 65.4878 103.198 65.5707 103.032L70.8583 94.4477C70.8583 94.4062 70.879 94.3855 70.9205 94.3855L83.2997 84.93C83.2997 84.93 83.3204 84.93 83.3619 84.93L83.984 84.619C84.2328 84.5567 84.3572 84.4945 84.4816 84.4323C84.6061 84.3701 84.7305 84.3701 84.7927 84.4945C84.9171 84.5568 84.9171 84.7434 84.8549 84.8056L73.2843 103.716C72.9111 104.339 71.8536 104.836 70.485 105.023C70.4436 105.023 70.4228 105.023 70.4228 105.023ZM68.2456 104.152C68.4115 104.152 68.5981 104.152 68.8054 104.152C69.3653 104.214 69.9874 104.276 70.4228 104.463C71.6048 104.276 72.5379 103.841 72.7867 103.405L83.8596 85.3032L83.6107 85.4277L71.2937 94.8209L66.0684 103.343C66.0269 103.426 66.0061 103.488 66.0061 103.53C66.0061 103.779 66.3794 104.09 66.9392 104.276C67.1881 104.235 67.4577 104.193 67.748 104.152C67.9138 104.152 68.0797 104.152 68.2456 104.152Z" fill="#302F34"/>
<path d="M79.1318 105.582C79.0489 105.582 78.9867 105.582 78.9452 105.582C78.3854 105.209 78.2609 104.836 78.2609 104.587L78.1987 103.654C78.1987 103.654 78.1987 103.633 78.1987 103.592C78.1987 103.467 78.3231 103.343 78.5098 103.343C78.6964 103.281 78.7586 103.405 78.8208 103.592C78.8208 103.841 79.1318 104.089 79.6917 104.338C79.8783 104.338 79.9405 104.525 79.8783 104.649C79.8783 104.836 79.6917 104.898 79.5051 104.836C79.2562 104.753 79.0282 104.649 78.8208 104.525V104.587C78.8208 104.774 79.1318 104.96 79.2563 105.085C79.3807 105.147 79.4428 105.334 79.3806 105.458C79.3184 105.582 79.194 105.582 79.1318 105.582Z" fill="#302F34"/>
<path d="M85.4765 105.272C85.3935 105.272 85.3106 105.251 85.2276 105.21C85.1654 105.023 85.1654 104.899 85.2898 104.774C85.5386 104.588 85.663 104.401 85.663 104.277V104.215C85.3313 104.463 84.8337 104.692 84.1701 104.899C83.9835 104.961 83.859 104.837 83.7968 104.712C83.7346 104.526 83.8591 104.401 83.9835 104.339C85.1654 104.028 85.663 103.593 85.663 103.281C85.6008 103.095 85.7252 102.97 85.9119 102.97C86.0985 102.97 86.2229 103.095 86.2229 103.219L86.2851 104.215C86.2851 104.463 86.1607 104.837 85.663 105.272C85.5801 105.272 85.5179 105.272 85.4765 105.272Z" fill="#302F34"/>
<path fill-rule="evenodd" clip-rule="evenodd" d="M78.7583 110C78.6754 110 78.5924 109.958 78.5095 109.875C78.3851 109.813 78.2607 109.689 78.2607 109.44L78.1362 106.205C78.1362 105.521 78.9449 104.899 80.3757 104.526C80.9355 104.339 81.5576 104.277 82.2419 104.214C82.8639 104.214 83.5482 104.214 84.1081 104.339C85.5388 104.588 86.4098 105.148 86.472 105.832L86.5342 109.067C86.5964 109.315 86.472 109.44 86.3476 109.502C86.0988 109.751 85.7255 109.626 85.0412 109.378C84.4191 109.191 83.486 108.88 82.4907 108.88C81.4954 108.942 80.5623 109.315 79.8781 109.626C79.3804 109.813 79.0693 110 78.7583 110ZM82.7396 104.774C82.5737 104.774 82.4078 104.795 82.2419 104.837C81.682 104.837 81.06 104.899 80.5001 105.085C79.256 105.396 78.6961 105.894 78.7583 106.205L78.8205 109.378C79.0072 109.378 79.3804 109.191 79.6292 109.129C80.3757 108.818 81.371 108.382 82.4285 108.32C83.5483 108.258 84.5436 108.631 85.2278 108.818C85.5389 108.942 85.8499 109.004 85.9743 109.067L85.8499 105.832C85.8499 105.521 85.29 105.085 84.0459 104.899C83.6312 104.816 83.1957 104.774 82.7396 104.774Z" fill="#302F34"/>
<path fill-rule="evenodd" clip-rule="evenodd" d="M80.4382 105.086C80.4382 105.086 80.4174 105.086 80.3759 105.086C80.0856 105.003 79.7954 104.92 79.5051 104.837C78.6964 104.588 78.2609 104.153 78.1987 103.593L77.8877 95.1325C77.8877 95.091 77.9084 95.0288 77.9499 94.9459L84.3572 84.4951C84.3987 84.4536 84.4402 84.4329 84.4817 84.4329C84.5646 84.35 84.6475 84.2877 84.7304 84.2463L84.7927 84.1841C84.8342 84.1841 84.8549 84.1841 84.8549 84.1841C84.9378 84.1011 85 84.0389 85.0415 83.9974C85.1037 83.873 85.2281 83.873 85.3525 83.873C85.4769 83.9353 85.5391 84.0597 85.5391 84.1841L85.6635 87.481L86.2234 103.219C86.2234 103.904 85.477 104.526 84.1706 104.899C84.1291 104.899 84.0876 104.899 84.0462 104.899C83.4863 104.837 82.8642 104.775 82.2421 104.837C81.6823 104.837 81.0603 104.899 80.5004 105.086C80.5004 105.086 80.4797 105.086 80.4382 105.086ZM78.5098 95.1947L78.8208 103.593C78.8208 103.841 79.1318 104.09 79.6917 104.339C79.9405 104.381 80.1894 104.422 80.4382 104.464C80.9981 104.339 81.6201 104.277 82.2421 104.215C82.8642 104.215 83.4863 104.215 84.0462 104.339C85.1659 104.028 85.6635 103.53 85.6635 103.282L84.9793 84.8062C84.9378 84.8062 84.8756 84.8269 84.7927 84.8683L78.5098 95.1947Z" fill="#302F34"/>
<path fill-rule="evenodd" clip-rule="evenodd" d="M51.4497 108.942C50.952 108.942 50.3922 108.631 49.8323 108.32C49.3968 108.009 48.8992 107.76 48.5882 107.698C48.1527 107.636 47.8417 107.823 47.5929 107.947C47.2818 108.134 46.9708 108.32 46.6598 108.071C46.3695 107.906 46.2036 107.698 46.1621 107.449C46.1621 107.159 46.328 106.889 46.6598 106.641L50.5788 103.655C51.3253 103.095 52.6316 102.722 54.1246 102.659C54.1868 102.659 54.3112 102.659 54.3734 102.659C54.6845 102.846 55.1199 103.033 55.6176 103.095C56.1774 103.219 56.7373 103.219 57.3594 103.219C57.4423 103.219 57.5045 103.219 57.546 103.219C58.168 103.593 58.2925 103.966 58.2925 104.215C58.3547 104.463 58.2302 104.899 57.7326 105.272L53.8136 108.258C53.2744 108.673 52.5072 108.901 51.5119 108.942C51.4704 108.942 51.4497 108.942 51.4497 108.942ZM48.3394 107.138C48.4638 107.138 48.5674 107.138 48.6504 107.138C49.148 107.201 49.6457 107.512 50.0811 107.823C50.5788 108.071 51.1387 108.382 51.4497 108.382C52.3206 108.341 52.9841 108.154 53.4403 107.823L57.3594 104.837C57.6082 104.65 57.7326 104.401 57.7326 104.277C57.7326 104.111 57.5874 103.945 57.2971 103.779C56.6751 103.779 56.053 103.779 55.4932 103.655C54.954 103.572 54.4978 103.427 54.1246 103.219C52.8182 103.281 51.5741 103.593 50.9521 104.09L47.033 107.076C46.7842 107.263 46.7842 107.387 46.7842 107.387C46.7842 107.449 46.8464 107.512 46.9708 107.574C46.9708 107.636 47.1574 107.512 47.2818 107.449C47.5929 107.325 47.9039 107.138 48.3394 107.138Z" fill="#302F34"/>
<path fill-rule="evenodd" clip-rule="evenodd" d="M69.2407 109.813C68.8675 109.813 68.3076 109.688 67.6856 109.502C67.0013 109.253 66.1926 109.004 65.5083 108.942C64.5752 108.942 63.5799 109.191 62.9579 109.377C62.3358 109.564 62.0248 109.688 61.8381 109.439C61.6515 109.19 61.8381 108.942 61.9003 108.817L63.8287 105.645C64.2642 104.96 65.3839 104.463 66.8769 104.276C67.1672 104.235 67.4575 104.193 67.7478 104.152C68.121 104.152 68.4735 104.152 68.8053 104.152C69.4274 104.214 69.9872 104.338 70.4849 104.463C71.2936 104.712 71.7912 105.085 71.9156 105.52C72.04 105.769 72.0193 106.039 71.8534 106.329L69.8628 109.564C69.7384 109.75 69.5518 109.813 69.2407 109.813ZM67.8722 108.942C68.432 109.066 69.2408 109.377 69.3652 109.253L71.3558 106.018C71.418 105.894 71.418 105.769 71.418 105.707C71.2936 105.458 70.9203 105.209 70.3605 105.023C69.8628 104.898 69.3652 104.774 68.7431 104.774C68.4528 104.732 68.1418 104.732 67.81 104.774C67.5197 104.774 67.2294 104.795 66.9391 104.836C65.6949 105.023 64.6375 105.458 64.3264 105.956L62.5224 108.942C62.6053 108.9 62.6883 108.859 62.7712 108.817C63.4555 108.631 64.4508 108.382 65.5706 108.382C66.317 108.444 67.1257 108.693 67.8722 108.942Z" fill="#302F34"/>
<path fill-rule="evenodd" clip-rule="evenodd" d="M31.108 89.6575C29.7394 89.6575 27.9977 89.3465 27.3134 88.9732C27.2719 88.9318 27.2304 88.8696 27.189 88.7866C27.189 88.6622 27.2097 88.5793 27.2512 88.5378L27.9976 87.6047C28.1221 87.5425 28.2465 87.4803 28.3709 87.5425C28.9929 87.9157 30.1749 88.1023 31.3568 88.0401H31.5435L52.6316 86.6716C52.756 86.6094 52.8804 86.7338 52.9426 86.9204C52.9426 87.0448 52.8182 87.2314 52.6938 87.2314L43.1139 88.8488L31.4812 89.5953C31.3568 89.6368 31.2324 89.6575 31.108 89.6575ZM27.9355 88.6C28.7441 88.911 30.3615 89.0976 31.419 89.0354H31.6056L43.0517 88.2889L46.9708 87.6047L31.419 88.6622C30.1749 88.7244 29.0552 88.5378 28.3087 88.1645L27.9355 88.6Z" fill="#302F34"/>
<path fill-rule="evenodd" clip-rule="evenodd" d="M33.4719 94.4476C32.5388 94.4476 31.3569 94.261 30.6726 94.0121C30.6311 94.0121 30.5897 93.9706 30.5482 93.8877C30.5067 93.8048 30.5067 93.7218 30.5482 93.6389L30.8592 92.768C30.9214 92.6436 31.1081 92.5814 31.2325 92.5814C31.9168 92.8302 32.7877 92.8924 33.7208 92.8924C34.0525 92.8509 34.4051 92.8095 34.7783 92.768L52.5695 89.7198C52.6939 89.7198 52.8805 89.7821 52.8805 89.9687C52.9427 90.0309 52.8805 90.1553 52.8183 90.2175C52.8598 90.259 52.9012 90.3212 52.9427 90.4041C52.9427 90.5907 52.8183 90.7151 52.6939 90.7774L48.2772 91.5238L43.7983 92.8302C43.7568 92.8302 43.7361 92.8302 43.7361 92.8302L34.9027 94.3232C34.5294 94.3646 34.1562 94.4061 33.783 94.4476C33.7 94.4476 33.5963 94.4476 33.4719 94.4476ZM31.1703 93.5767C31.9167 93.7633 32.9743 93.8877 33.7208 93.8255C34.094 93.8255 34.4465 93.8048 34.7783 93.7633L43.6117 92.2703L47.2819 91.2128L34.8405 93.3278C34.4672 93.3693 34.094 93.4108 33.7208 93.4523C32.8499 93.5145 31.979 93.3901 31.2947 93.2034L31.1703 93.5767Z" fill="#302F34"/>
<path d="M56.3016 93.2039C56.1772 93.2039 56.1149 93.1416 56.0527 93.0172C56.0527 92.9758 56.0527 92.9343 56.0527 92.8928C56.0527 92.7684 56.115 92.644 56.2394 92.644L59.2875 91.7109C59.4741 91.6487 59.5986 91.7731 59.6608 91.8975C59.6608 91.939 59.6608 91.9804 59.6608 92.0219C59.6608 92.1463 59.5985 92.2086 59.4741 92.2708L56.426 93.2039C56.3845 93.2039 56.343 93.2039 56.3016 93.2039Z" fill="#302F34"/>
<path fill-rule="evenodd" clip-rule="evenodd" d="M38.2616 98.429C37.6396 98.429 36.9553 98.3667 36.5198 98.3045C36.3332 98.2423 36.271 98.1179 36.271 97.9313L36.3954 96.9982C36.3954 96.9152 36.4369 96.853 36.5198 96.8116C36.6028 96.7701 36.665 96.7494 36.7065 96.7494C37.2663 96.8738 37.8884 96.8738 38.5105 96.8738C39.1947 96.8116 39.8168 96.7494 40.3767 96.5628L59.2876 91.2752C59.412 91.213 59.5986 91.2752 59.6608 91.4618C59.6608 91.5862 59.5986 91.7106 59.4742 91.7728L56.4261 93.1414L53.6268 94.4477L40.5633 98.1179C39.9412 98.3045 39.3191 98.3668 38.6349 98.429C38.5104 98.429 38.386 98.429 38.2616 98.429ZM36.8931 97.7447C37.3907 97.8069 38.0128 97.8691 38.5727 97.8691C39.1947 97.8069 39.879 97.7447 40.3767 97.5581L53.4401 93.8878L55.804 92.8303L40.5011 97.1226C39.9412 97.3092 39.2569 97.4336 38.5727 97.4336C38.0128 97.4336 37.453 97.4336 36.9553 97.3714L36.8931 97.7447Z" fill="#302F34"/>
<path d="M63.8909 94.2606C63.808 94.2606 63.7458 94.2191 63.7043 94.1362C63.6628 94.0947 63.6421 94.0532 63.6421 94.0118C63.6421 93.8873 63.6836 93.8044 63.7665 93.7629L64.6996 93.0164C64.824 92.9542 65.0106 92.9542 65.0728 93.0787C65.1143 93.1201 65.1351 93.1823 65.1351 93.2653C65.1351 93.3482 65.1143 93.4312 65.0728 93.5141L64.0775 94.1984C64.0361 94.2398 63.9739 94.2606 63.8909 94.2606Z" fill="#302F34"/>
<path d="M46.3485 102.099C46.1411 102.099 45.9545 102.099 45.7886 102.099C45.6642 102.099 45.5398 101.974 45.5398 101.788C45.5398 101.663 45.6642 101.539 45.8508 101.539C46.1411 101.539 46.4521 101.539 46.7839 101.539C47.717 101.477 48.6501 101.29 49.2722 100.979L61.4647 95.5047L62.6467 94.5716L49.4588 100.543C48.7745 100.855 47.7792 101.103 46.7217 101.103C46.3899 101.145 46.0582 101.145 45.7264 101.103C45.602 101.103 45.4775 100.979 45.4775 100.792C45.4775 100.668 45.602 100.543 45.7886 100.543C46.0789 100.585 46.3899 100.585 46.7217 100.543C47.6548 100.481 48.5879 100.295 49.2722 100.046L64.7617 93.0164C64.8861 92.9542 65.0728 92.9542 65.135 93.0787C65.1972 93.2031 65.1349 93.3897 65.0727 93.5141L61.7758 96.0024C61.7758 96.0024 61.755 96.0024 61.7136 96.0024L49.521 101.539C48.8367 101.85 47.8414 102.036 46.7839 102.099C46.6595 102.099 46.5143 102.099 46.3485 102.099Z" fill="#302F34"/>
<path fill-rule="evenodd" clip-rule="evenodd" d="M57.9813 104.712C57.8983 104.712 57.8361 104.671 57.7947 104.588C57.7117 104.546 57.6909 104.464 57.7324 104.339C57.7946 104.09 57.4836 103.841 57.2348 103.717C57.1726 103.717 57.1104 103.593 57.1104 103.468C57.1104 103.344 57.2348 103.219 57.3592 103.219C58.6655 103.157 59.8475 102.784 60.4073 102.348L70.9203 94.386C71.0447 94.3238 71.1691 94.3238 71.2935 94.386C71.3557 94.5104 71.4179 94.6348 71.2935 94.7593L70.1738 96.6877C70.1323 96.7291 70.0909 96.7499 70.0494 96.7499L60.8428 103.779C60.2207 104.277 59.2254 104.588 58.0435 104.712C58.0435 104.712 58.0227 104.712 57.9813 104.712ZM58.1057 103.717C58.1886 103.841 58.2508 103.966 58.2923 104.09C59.2254 103.966 60.0341 103.717 60.4695 103.344L69.6762 96.3144L70.0494 95.7546L60.7806 102.846C60.2207 103.282 59.2254 103.593 58.1057 103.717Z" fill="#302F34"/>
<path fill-rule="evenodd" clip-rule="evenodd" d="M37.3907 105.645C36.7064 105.645 36.0222 105.209 35.4001 104.774C34.9647 104.525 34.5914 104.276 34.2182 104.152C33.9693 104.09 33.8449 104.152 33.6583 104.276C33.5339 104.318 33.4095 104.38 33.2851 104.463C33.1607 104.463 33.057 104.442 32.974 104.401C32.8496 104.276 32.5386 104.028 32.5386 103.717C32.6008 103.405 32.9118 103.157 33.5339 102.846L39.1947 100.295C39.9412 99.9219 40.9365 99.7353 42.0562 99.6731C42.4295 99.6316 42.8027 99.6316 43.176 99.6731C43.7981 99.7353 44.3579 99.7975 44.8555 99.9841C45.3947 100.15 45.7679 100.378 45.9753 100.668C46.2241 100.917 46.307 101.187 46.2241 101.477C46.0997 101.913 45.7264 102.348 44.98 102.659L39.3191 105.209C38.7385 105.5 38.1165 105.645 37.4529 105.645C37.4115 105.645 37.3907 105.645 37.3907 105.645ZM34.0316 103.53C34.156 103.53 34.2804 103.551 34.4048 103.592C34.8402 103.779 35.2757 104.028 35.7112 104.339C36.271 104.712 36.8931 105.147 37.4529 105.085C38.0335 105.044 38.5726 104.919 39.0703 104.712L44.7934 102.161C45.291 101.913 45.6021 101.601 45.6643 101.353C45.7057 101.27 45.6643 101.166 45.5398 101.042C45.4154 100.917 45.1666 100.731 44.6689 100.544C44.2335 100.357 43.6736 100.295 43.1138 100.233C42.782 100.233 42.4295 100.233 42.0562 100.233C41.0609 100.295 40.1278 100.482 39.4436 100.793L33.7827 103.343C33.2851 103.592 33.1606 103.717 33.1606 103.779C33.1606 103.779 33.1607 103.779 33.2229 103.841C33.2643 103.799 33.3058 103.779 33.3473 103.779C33.5339 103.654 33.7205 103.53 34.0316 103.53Z" fill="#302F34"/>
<path fill-rule="evenodd" clip-rule="evenodd" d="M71.6048 105.769C71.4803 105.769 71.4182 105.707 71.356 105.645C71.1693 105.396 70.8583 105.147 70.3606 105.023C70.2362 104.961 70.1118 104.836 70.1118 104.712C70.174 104.588 70.2362 104.463 70.3606 104.463C71.5426 104.277 72.5379 103.903 72.7867 103.406L77.9499 94.9455C78.0121 94.8833 78.1365 94.821 78.2609 94.821C78.3853 94.8833 78.5098 95.0077 78.5098 95.1321L78.5719 96.0652C78.5719 96.1481 78.5512 96.2103 78.5098 96.2518L73.3466 104.712C72.9733 105.272 72.2269 105.583 71.667 105.769C71.6255 105.769 71.6048 105.769 71.6048 105.769ZM71.356 104.836C71.4804 104.919 71.584 105.023 71.667 105.147C72.2891 104.961 72.6623 104.65 72.8489 104.401L73.1599 103.903C72.7867 104.277 72.1646 104.65 71.356 104.836Z" fill="#302F34"/>
<path fill-rule="evenodd" clip-rule="evenodd" d="M78.7583 110C78.6754 110 78.5924 109.958 78.5095 109.875C78.3851 109.813 78.2607 109.689 78.2607 109.44L78.1362 106.205C78.1362 105.521 78.9449 104.899 80.3757 104.526C80.9355 104.339 81.5576 104.277 82.2419 104.214C82.8639 104.214 83.5482 104.214 84.1081 104.339C85.5388 104.588 86.4098 105.148 86.472 105.832L86.5342 109.067C86.5964 109.315 86.472 109.44 86.3476 109.502C86.0988 109.751 85.7255 109.626 85.0412 109.378C84.4191 109.191 83.486 108.88 82.4907 108.88C81.4954 108.942 80.5623 109.315 79.8781 109.626C79.3804 109.813 79.0693 110 78.7583 110ZM82.7396 104.774C82.5737 104.774 82.4078 104.795 82.2419 104.837C81.682 104.837 81.06 104.899 80.5001 105.085C79.256 105.396 78.6961 105.894 78.7583 106.205L78.8205 109.378C79.0072 109.378 79.3804 109.191 79.6292 109.129C80.3757 108.818 81.371 108.382 82.4285 108.32C83.5483 108.258 84.5436 108.631 85.2278 108.818C85.5389 108.942 85.8499 109.004 85.9743 109.067L85.8499 105.832C85.8499 105.521 85.29 105.085 84.0459 104.899C83.6312 104.816 83.1957 104.774 82.7396 104.774Z" fill="#302F34"/>
<path fill-rule="evenodd" clip-rule="evenodd" d="M58.9761 80.3893C58.6651 80.3893 27.9971 75.786 23.1449 58.9279C22.1496 55.5688 22.6473 52.2718 24.5135 49.2237C29.4901 41.3234 43.922 34.9783 65.1968 31.2458C72.4128 30.0017 76.8295 29.5041 85.6629 30.6238C111.603 33.983 111.603 56.3153 111.603 56.5641C111.603 56.6885 111.479 56.8129 111.354 56.8129C111.168 56.8751 111.043 56.7507 111.043 56.6263C111.043 56.5641 110.919 55.8176 110.546 54.6357C109.675 50.841 104.201 32.3656 85.7873 35.7247C66.8142 39.2083 59.3494 79.7673 59.2872 80.2027C59.225 80.3271 59.1005 80.3893 58.9761 80.3893ZM76.8917 30.6238C72.9727 30.6238 69.6757 31.0592 65.2591 31.8057C44.1709 35.4759 29.8633 41.7588 25.0111 49.5347C23.2071 52.4584 22.7717 55.5688 23.7048 58.8035C28.1837 74.4175 55.6792 79.3318 58.7273 79.8295C59.1006 78.0877 60.9668 68.6944 64.8236 59.0524C68.7426 49.1615 75.5232 37.0311 85.6629 35.1649C92.7545 33.8585 98.7886 35.6003 103.579 40.3281C107.311 43.9983 109.364 48.6638 110.483 52.0852C108.991 45.4912 103.827 33.5475 85.6007 31.2458C82.1793 30.8104 79.38 30.6238 76.8917 30.6238Z" fill="#302F34"/>
</svg>
